<?xml version="1.0" standalone="no"?>
<!DOCTYPE svg PUBLIC "-//W3C//DTD SVG 20010904//EN"
 "http://www.w3.org/TR/2001/REC-SVG-20010904/DTD/svg10.dtd">
<svg version="1.0" xmlns="http://www.w3.org/2000/svg"
 width="940.000000pt" height="940.000000pt" viewBox="0 0 940.000000 940.000000"
 preserveAspectRatio="xMidYMid meet">
<metadata>
Created by potrace 1.14, written by Peter Selinger 2001-2017
</metadata>
<g transform="translate(0.000000,940.000000) scale(0.100000,-0.100000)"
fill="#000000" stroke="none">
<path d="M2660 9385 c-7 -8 -8 -15 -2 -15 5 0 15 7 22 15 7 8 8 15 2 15 -5 0
-15 -7 -22 -15z"/>
<path d="M3691 9354 c-18 -25 -31 -48 -28 -50 3 -3 19 15 37 41 42 60 33 69
-9 9z"/>
<path d="M3930 9385 c0 -8 -4 -15 -8 -15 -5 0 -58 -55 -120 -123 -110 -121
-125 -139 -179 -206 -16 -19 -43 -51 -60 -71 -18 -21 -33 -43 -33 -49 0 -6 -6
-14 -13 -17 -7 -2 -23 -22 -36 -43 -20 -32 -72 -80 -59 -54 2 4 14 31 27 58
12 28 36 78 52 112 31 66 38 90 16 58 -32 -48 -127 -241 -127 -259 0 -9 -16
-48 -35 -86 -19 -38 -35 -76 -35 -84 0 -8 -13 -44 -30 -81 -16 -37 -30 -77
-29 -88 0 -26 43 64 60 127 15 55 74 167 107 203 15 17 54 67 86 112 32 44 63
81 67 81 5 0 9 6 9 14 0 7 16 28 35 47 19 19 35 38 35 43 0 5 15 24 33 42 46
45 97 101 97 107 0 2 24 29 53 58 93 93 121 129 103 129 -9 0 -16 -7 -16 -15z"/>
<path d="M6451 9396 c24 -24 146 -116 154 -116 11 0 -8 17 -92 80 -29 22 -55
40 -59 40 -4 0 -5 -2 -3 -4z"/>
<path d="M1519 9333 l-24 -28 28 24 c25 23 32 31 24 31 -2 0 -14 -12 -28 -27z"/>
<path d="M2587 9291 c-30 -38 -61 -80 -67 -93 -7 -12 -22 -33 -33 -45 -21 -24
-56 -78 -132 -208 -26 -44 -55 -91 -64 -105 -16 -24 -140 -273 -206 -415 -54
-115 -175 -414 -175 -430 0 -5 -13 -44 -29 -85 -44 -115 -101 -302 -101 -330
1 -28 56 114 66 170 6 39 31 112 51 150 7 14 13 33 13 43 0 11 16 55 35 100
19 44 35 86 35 93 0 8 16 46 35 85 19 40 35 77 35 83 0 6 15 43 33 81 19 39
48 102 66 140 18 39 42 88 53 110 12 22 38 75 59 118 21 42 43 77 49 77 5 0
10 11 10 23 0 13 9 35 21 48 12 13 30 42 41 64 12 22 31 53 44 68 13 16 24 33
24 39 0 5 16 29 35 52 19 24 35 47 35 52 0 5 16 27 35 49 19 22 35 42 35 46 0
3 14 21 30 39 27 30 37 50 26 50 -2 0 -28 -31 -59 -69z"/>
<path d="M6750 9343 c0 -12 38 -48 45 -41 3 2 -6 15 -20 28 -14 13 -25 19 -25
13z"/>
<path d="M6810 9293 c0 -12 7 -20 51 -59 13 -12 42 -43 64 -69 22 -26 52 -58
68 -73 15 -14 27 -31 27 -38 0 -7 8 -18 18 -23 10 -5 24 -22 32 -37 8 -15 30
-44 47 -63 18 -20 33 -41 33 -48 0 -6 10 -24 23 -40 13 -15 38 -53 55 -84 29
-51 62 -91 62 -75 0 4 -12 25 -27 48 -16 22 -32 48 -38 57 -57 92 -97 151
-119 174 -14 15 -26 34 -26 42 0 8 -9 19 -20 25 -11 6 -26 23 -34 38 -19 35
-216 241 -216 225z"/>
<path d="M3622 9242 c-17 -27 -32 -55 -32 -60 0 -6 -14 -32 -31 -57 -17 -25
-29 -50 -27 -56 3 -10 14 6 89 134 47 80 48 111 1 39z"/>
<path d="M6716 9161 c130 -129 187 -191 250 -271 26 -33 50 -60 53 -60 4 0 15
-16 25 -35 11 -19 23 -35 28 -35 4 0 8 -6 8 -13 0 -8 9 -22 21 -33 12 -10 51
-64 88 -119 36 -55 74 -109 84 -119 9 -11 17 -26 17 -33 0 -7 4 -13 8 -13 4 0
21 -26 36 -57 16 -32 35 -65 42 -73 7 -8 47 -84 90 -168 75 -149 104 -189 69
-98 -10 25 -24 51 -31 57 -8 6 -14 20 -14 30 0 20 -42 93 -60 104 -5 3 -10 14
-10 23 0 9 -18 44 -40 77 -22 33 -40 65 -40 71 0 6 -9 19 -20 29 -11 10 -22
27 -26 39 -6 18 -21 40 -64 93 -6 7 -10 16 -10 21 0 5 -15 26 -32 48 -18 22
-37 47 -43 56 -20 34 -156 208 -168 215 -7 4 -20 19 -29 33 -36 54 -315 340
-331 340 -5 0 39 -49 99 -109z"/>
<path d="M1359 9173 c-13 -16 -12 -17 4 -4 9 7 17 15 17 17 0 8 -8 3 -21 -13z"/>
<path d="M1189 9003 c-13 -16 -12 -17 4 -4 16 13 21 21 13 21 -2 0 -10 -8 -17
-17z"/>
<path d="M1125 8930 c-16 -17 -16 -20 -3 -15 9 4 19 13 22 21 7 19 2 18 -19
-6z"/>
<path d="M1079 8873 c-13 -16 -12 -17 4 -4 16 13 21 21 13 21 -2 0 -10 -8 -17
-17z"/>
<path d="M1023 8798 c-20 -26 -26 -41 -15 -34 12 7 36 46 29 46 -3 0 -9 -6
-14 -12z"/>
<path d="M949 8693 c-29 -35 -41 -53 -36 -53 2 0 17 16 31 35 28 36 31 49 5
18z"/>
<path d="M4746 8701 c-4 -5 -8 -74 -11 -153 l-4 -143 13 150 c8 83 12 151 11
153 -2 2 -6 -1 -9 -7z"/>
<path d="M7290 8664 c0 -6 11 -31 25 -55 14 -24 27 -51 31 -59 3 -8 21 -46 39
-85 19 -38 50 -104 69 -145 20 -41 36 -66 36 -55 0 11 -11 39 -24 62 -14 23
-27 53 -31 65 -7 26 -107 230 -116 238 -3 3 -11 14 -17 25 -6 11 -12 15 -12 9z"/>
<path d="M886 8603 c-6 -14 -5 -15 5 -6 7 7 10 15 7 18 -3 3 -9 -2 -12 -12z"/>
<path d="M8375 8541 c11 -13 34 -32 50 -44 l30 -20 -31 29 c-17 16 -39 36 -50
44 -18 14 -18 13 1 -9z"/>
<path d="M8470 8475 c0 -5 4 -15 8 -20 13 -19 122 -98 128 -93 2 3 -11 17 -31
32 -19 15 -33 31 -30 37 3 5 -1 6 -10 3 -10 -4 -25 4 -40 22 -14 16 -25 25
-25 19z"/>
<path d="M8120 8425 c0 -3 21 -32 48 -66 26 -33 52 -68 57 -77 6 -10 19 -30
29 -46 28 -42 106 -197 106 -210 0 -6 16 -44 35 -83 19 -40 35 -78 35 -84 0
-7 13 -51 29 -98 16 -47 44 -133 62 -191 19 -58 35 -97 37 -88 2 9 -12 63 -32
120 -19 57 -38 121 -42 143 -7 39 -6 40 13 23 11 -10 25 -18 31 -18 6 0 17 -6
24 -12 7 -7 47 -35 88 -63 41 -27 94 -66 117 -85 24 -19 63 -51 87 -70 41 -32
66 -62 103 -124 l13 -21 0 21 c0 16 15 29 63 51 34 17 82 37 107 46 85 28 225
82 248 95 20 12 22 20 22 99 l0 85 -27 -6 c-83 -19 -93 -19 -93 -2 0 9 7 16
15 16 8 0 15 4 15 9 0 6 21 12 48 14 26 2 -1 3 -60 2 -85 -2 -105 1 -101 12 4
9 -4 13 -28 13 -19 0 -144 1 -279 3 -226 2 -245 1 -248 -15 -2 -12 3 -18 15
-18 10 0 24 -9 31 -21 10 -15 22 -20 50 -19 20 1 42 1 47 0 6 -1 13 -2 16 -2
3 1 4 -10 1 -23 -2 -14 -10 -25 -17 -25 -7 0 -20 -11 -29 -25 -19 -29 -31 -31
-54 -8 -16 16 -16 16 1 10 12 -5 17 -1 17 12 0 15 -5 18 -22 13 -17 -4 -20 -2
-15 12 4 9 3 15 -1 12 -5 -3 -15 4 -23 16 -24 35 -40 48 -57 47 -13 0 -12 -2
4 -9 12 -5 25 -13 29 -19 8 -14 -18 -14 -32 0 -6 6 -17 9 -25 7 -7 -3 4 -13
26 -23 22 -11 34 -21 28 -23 -13 -4 -107 43 -131 67 -9 9 -25 20 -34 24 -9 3
-17 14 -17 23 0 19 -55 152 -114 274 -14 30 -26 60 -26 67 0 6 -18 33 -40 59
-22 27 -40 53 -40 58 0 6 -12 23 -27 39 l-28 29 25 -7 c14 -4 27 -10 30 -14 9
-11 64 -41 110 -61 25 -11 54 -25 65 -32 54 -32 104 -56 108 -52 2 2 10 -2 17
-11 7 -8 19 -15 27 -15 8 0 27 -7 43 -15 17 -9 30 -11 30 -6 0 5 -15 15 -32
22 -18 7 -39 19 -46 26 -7 7 -22 13 -32 13 -22 0 -197 89 -236 119 -15 12 -31
21 -36 21 -5 0 -33 16 -62 35 -51 34 -66 41 -66 30z m780 -615 c24 -8 24 -8 3
-9 -13 -1 -23 -7 -23 -16 0 -11 -11 -15 -40 -15 -29 0 -40 4 -40 15 0 9 -10
15 -22 16 -22 1 -22 1 2 9 14 4 41 8 60 8 19 0 46 -4 60 -8z m140 -100 c0 -5
-18 -10 -40 -10 -22 0 -40 5 -40 10 0 6 18 10 40 10 22 0 40 -4 40 -10z m73 3
c-7 -2 -21 -2 -30 0 -10 3 -4 5 12 5 17 0 24 -2 18 -5z m-446 -9 c-3 -3 -12
-4 -19 -1 -8 3 -5 6 6 6 11 1 17 -2 13 -5z m153 -61 c0 -5 -11 -13 -25 -20
-29 -13 -33 -6 -7 13 19 15 32 18 32 7z m0 -49 c0 -2 -7 -4 -15 -4 -8 0 -15 4
-15 10 0 5 7 7 15 4 8 -4 15 -8 15 -10z"/>
<path d="M736 8361 c-36 -69 -32 -78 5 -13 17 30 28 56 25 59 -2 3 -16 -18
-30 -46z"/>
<path d="M3223 8320 c-17 -52 -34 -106 -36 -120 -3 -14 -17 -65 -32 -115 -15
-49 -33 -117 -40 -150 -7 -33 -22 -98 -34 -145 -42 -175 -85 -377 -92 -440 -4
-36 -21 -137 -38 -225 -17 -88 -31 -176 -31 -196 0 -20 -9 -94 -19 -165 -39
-259 -68 -590 -77 -874 -8 -223 24 -620 61 -770 15 -58 30 -129 35 -157 5 -29
16 -70 25 -90 9 -21 23 -53 31 -71 8 -18 14 -40 14 -50 0 -23 69 -142 70 -119
0 10 -14 44 -30 76 -17 32 -37 82 -46 112 -29 105 -32 114 -47 159 -9 25 -24
96 -35 159 -18 110 -18 115 0 149 10 20 18 41 18 47 0 6 14 40 30 74 17 35 34
77 37 94 3 16 21 61 40 99 18 38 33 74 33 81 0 7 9 31 20 52 11 22 32 74 47
115 28 80 56 114 128 151 22 12 49 30 60 40 23 21 182 88 235 99 19 4 63 17
98 28 65 21 90 14 49 -13 -36 -24 -107 -93 -107 -105 0 -18 15 -11 58 30 22
22 49 40 59 39 16 0 16 -1 -2 -9 -18 -8 -18 -9 5 -10 l25 -2 -25 -7 c-14 -5
-43 -20 -64 -35 -22 -15 -46 -24 -54 -21 -14 5 -61 -32 -62 -48 0 -5 -16 -27
-35 -50 -19 -22 -35 -47 -35 -54 0 -7 -11 -30 -23 -51 -24 -37 -31 -54 -66
-172 -52 -176 -52 -253 0 -372 31 -71 55 -104 113 -157 16 -14 36 -34 45 -43
8 -10 20 -18 27 -18 12 0 50 -38 43 -44 -2 -2 -31 -8 -64 -13 -48 -7 7 -10
260 -17 326 -7 565 -24 735 -51 52 -8 113 -15 135 -15 36 0 38 1 20 14 -11 7
-32 16 -47 20 -32 7 -35 19 -10 46 31 33 98 173 121 253 21 71 23 94 18 225
-5 179 -41 324 -113 466 -20 39 -10 45 20 13 14 -15 30 -27 36 -27 17 0 160
-150 160 -168 0 -6 10 -19 23 -29 13 -10 41 -42 62 -71 22 -29 41 -48 43 -42
2 6 -2 17 -8 25 -30 37 10 9 83 -57 88 -79 94 -71 26 35 -41 66 -43 84 -5 48
35 -33 52 -17 24 22 -12 18 -28 38 -35 45 -7 7 -13 22 -13 31 0 10 -7 24 -14
31 -8 6 -24 27 -35 46 -19 32 -19 34 -3 22 11 -7 50 -48 88 -91 38 -43 70 -74
72 -69 8 25 -119 171 -235 269 -21 18 -54 46 -73 63 -19 16 -38 30 -42 30 -3
0 -13 6 -20 13 -25 24 -148 117 -154 117 -4 0 -29 14 -56 31 -28 16 -87 42
-131 56 -104 33 -119 46 -116 98 2 22 -2 51 -8 65 -11 24 -40 397 -32 405 2 2
37 -8 77 -21 40 -14 105 -31 145 -39 73 -14 178 -38 232 -53 27 -8 31 -13 37
-64 4 -31 15 -82 26 -114 10 -33 25 -79 31 -104 16 -57 61 -172 73 -184 4 -6
8 -20 8 -33 0 -13 11 -41 25 -63 14 -22 25 -42 25 -45 0 -12 -24 -3 -58 24
-20 16 -57 39 -82 52 -25 13 -47 26 -50 30 -11 12 -181 91 -186 86 -6 -6 80
-57 97 -57 7 0 22 -9 34 -20 11 -10 39 -30 61 -42 144 -82 238 -156 265 -210
10 -20 31 -51 47 -67 45 -48 71 -81 89 -112 18 -29 33 -38 33 -18 0 6 -9 22
-20 36 -27 34 -17 43 15 13 39 -37 39 -17 1 31 -20 24 -48 69 -64 99 -63 123
-159 487 -169 642 -5 77 -4 88 11 88 10 0 16 -8 16 -23 0 -13 3 -27 7 -31 10
-10 33 -78 33 -101 0 -11 16 -58 35 -105 19 -46 35 -90 35 -97 0 -6 14 -35 30
-63 17 -28 30 -56 30 -63 0 -7 16 -36 35 -64 19 -29 35 -57 35 -62 0 -6 13
-25 29 -43 15 -18 34 -44 41 -58 33 -63 170 -207 280 -295 105 -83 100 -79
111 -68 7 7 -2 19 -26 37 -19 15 -35 36 -35 47 0 11 -4 17 -10 14 -5 -3 -10
-1 -10 5 0 6 -8 20 -19 31 -19 21 -111 199 -111 215 1 5 9 -5 18 -22 20 -37
25 -42 127 -150 44 -46 85 -84 89 -84 5 0 24 -12 43 -26 84 -64 240 -133 265
-118 4 3 -5 18 -19 35 -24 26 -73 104 -73 115 0 3 32 -27 72 -66 39 -38 75
-70 80 -70 5 0 29 -14 54 -31 25 -17 61 -33 80 -36 l36 -6 -17 32 c-9 18 -22
34 -30 37 -32 13 -105 248 -105 342 0 26 -7 97 -14 157 -19 150 -29 379 -15
345 6 -14 15 -33 20 -42 5 -10 9 -28 9 -40 0 -12 6 -29 13 -37 7 -9 23 -41 36
-71 12 -30 38 -86 57 -125 19 -38 34 -73 34 -78 0 -4 26 -46 58 -93 31 -47 62
-95 69 -106 6 -12 23 -33 36 -47 57 -59 87 -93 106 -120 19 -27 20 -29 3 -44
-9 -9 -28 -22 -42 -29 -46 -25 -100 -63 -104 -74 -8 -21 29 -3 68 32 20 19 43
34 50 34 8 0 19 7 27 16 11 14 38 29 159 94 81 43 187 90 202 90 10 0 33 7 52
17 l35 16 40 -39 c23 -21 38 -41 33 -46 -4 -4 -34 -10 -67 -14 -52 -5 -128
-32 -187 -64 -10 -6 -26 -10 -37 -10 -10 0 -25 -7 -32 -17 -8 -9 -37 -26 -65
-39 -76 -33 -209 -123 -271 -181 -18 -18 -40 -33 -48 -33 -8 0 -15 -9 -15 -20
0 -11 3 -20 6 -20 4 0 31 20 60 45 76 65 78 55 4 -20 -75 -74 -140 -149 -140
-160 0 -4 23 12 50 35 28 24 54 39 58 35 4 -4 -3 -14 -15 -22 -13 -9 -23 -21
-23 -27 0 -6 -16 -27 -35 -45 -20 -18 -34 -36 -31 -38 4 -5 88 57 194 143 17
14 32 22 32 16 0 -5 -20 -46 -45 -91 -103 -181 -129 -377 -70 -516 7 -16 19
-45 25 -62 7 -18 21 -42 31 -54 24 -28 24 -39 -1 -39 -43 0 -17 -17 48 -32 37
-8 101 -27 142 -41 91 -31 306 -81 415 -97 44 -7 92 -18 107 -26 41 -21 53
-18 35 9 -13 21 -13 25 3 47 43 62 88 205 106 340 46 341 -2 606 -135 740
l-42 43 43 -5 c40 -5 93 -26 146 -59 25 -15 102 -88 102 -96 0 -3 16 -27 35
-53 19 -26 35 -52 35 -56 0 -16 55 -154 62 -154 3 0 4 28 1 63 -3 52 -2 59 8
42 7 -11 18 -26 25 -33 7 -6 32 -47 56 -90 29 -53 44 -71 46 -58 2 10 -3 35
-11 55 -42 105 -55 141 -49 141 11 -1 62 -72 62 -87 0 -7 5 -13 10 -13 6 0 10
8 10 18 -1 24 -33 120 -60 173 -12 24 -27 62 -35 84 -7 22 -16 49 -20 59 -6
14 -5 17 3 12 7 -4 19 -24 28 -44 8 -20 18 -39 22 -42 17 -13 42 -71 42 -99 0
-21 5 -31 15 -31 19 0 19 46 0 80 -8 14 -14 35 -15 47 0 13 -14 35 -31 50 -17
16 -37 41 -44 58 -7 16 -25 42 -39 57 -33 35 -34 49 -1 18 20 -19 28 -21 37
-12 10 10 10 16 0 30 -6 9 -19 31 -27 47 -16 29 -16 29 2 9 10 -11 25 -31 34
-45 9 -13 20 -21 24 -17 12 12 -18 62 -72 122 -44 49 -83 110 -83 131 0 8 -9
30 -19 48 -10 19 -30 65 -44 103 -14 38 -37 98 -52 133 -35 84 -28 112 11 48
16 -27 47 -77 69 -112 22 -35 49 -79 60 -97 43 -70 62 -99 110 -169 28 -40 55
-79 60 -87 6 -9 49 -65 97 -125 l87 -111 -15 -35 c-8 -20 -24 -65 -34 -101
-10 -36 -28 -90 -38 -120 -11 -30 -28 -84 -37 -120 -10 -36 -21 -76 -25 -90
-4 -14 -13 -52 -20 -85 -7 -33 -21 -98 -32 -145 -30 -127 -48 -247 -48 -318
l0 -64 -77 -77 c-87 -85 -116 -110 -153 -129 -14 -7 -45 -23 -69 -37 -24 -14
-52 -25 -61 -25 -17 0 -40 -18 -40 -32 0 -20 77 -38 166 -38 85 0 99 3 149 30
87 47 82 69 49 -215 -8 -71 -20 -146 -25 -166 -5 -20 -9 -50 -9 -67 0 -17 -7
-57 -16 -89 -8 -32 -24 -90 -34 -130 -10 -40 -33 -100 -49 -133 -17 -34 -31
-67 -31 -72 0 -6 -16 -33 -35 -59 -19 -27 -35 -53 -35 -59 0 -5 -14 -25 -30
-43 -17 -19 -30 -38 -30 -42 0 -4 -12 -19 -27 -35 -16 -15 -55 -55 -88 -90
-33 -34 -80 -79 -105 -99 -24 -20 -52 -43 -61 -51 -9 -8 -42 -33 -74 -55 -32
-22 -78 -55 -102 -73 -24 -17 -48 -32 -54 -32 -6 0 -30 -13 -54 -30 -24 -16
-50 -30 -57 -30 -7 0 -39 -16 -71 -35 -32 -19 -62 -35 -67 -35 -4 0 -38 -16
-74 -35 -37 -19 -72 -35 -79 -35 -8 0 -41 -13 -75 -30 -34 -16 -69 -30 -78
-30 -8 0 -28 -7 -43 -15 -38 -19 -108 -45 -151 -55 -19 -4 -75 -21 -125 -38
-127 -43 -252 -81 -305 -91 l-45 -9 40 -1 c22 0 62 6 89 14 27 8 52 13 54 10
7 -6 -28 -74 -50 -99 -10 -11 -18 -25 -18 -32 0 -7 -3 -19 -6 -27 -14 -37 196
49 289 117 15 12 55 47 88 80 33 32 62 56 65 53 12 -12 -86 -172 -158 -258
-21 -25 -38 -47 -38 -50 0 -11 170 12 235 32 39 11 86 24 105 28 40 9 216 95
237 117 8 8 20 14 27 14 7 0 28 14 46 30 55 49 66 39 23 -19 -16 -20 -32 -44
-38 -53 -5 -9 -30 -39 -53 -67 -42 -48 -40 -68 2 -36 11 8 26 15 34 15 7 0 37
16 66 35 29 19 56 35 59 35 3 0 19 12 36 28 16 15 52 45 78 67 27 22 65 63 86
90 20 28 50 66 67 85 16 19 30 39 30 44 0 6 8 19 19 30 38 42 165 291 185 361
17 64 46 129 70 157 l28 33 -6 -55 c-32 -279 -91 -523 -157 -642 -5 -10 -9
-24 -9 -32 0 -15 -62 -143 -97 -199 -27 -43 -24 -52 20 -70 25 -11 40 -11 81
0 28 7 61 18 73 24 37 19 50 5 20 -21 -36 -31 -34 -40 7 -40 39 0 87 16 134
43 54 32 29 31 -48 -3 -40 -16 -75 -28 -77 -26 -8 8 31 53 59 69 16 9 28 23
28 32 0 19 -3 19 -42 -5 -18 -11 -44 -20 -57 -20 -23 0 -22 1 13 43 20 23 50
56 66 74 17 18 30 38 30 45 0 7 14 24 30 38 17 14 30 29 30 33 0 5 16 28 35
51 19 24 35 46 35 50 0 4 19 35 43 69 24 34 49 73 55 87 7 14 25 48 42 75 91
154 191 381 271 620 23 66 44 125 49 130 4 6 10 32 14 58 3 27 12 63 20 80 17
37 34 108 46 187 4 30 15 80 23 110 9 30 21 89 26 130 6 41 17 122 25 180 41
286 57 484 55 673 -1 89 4 186 10 216 13 66 14 71 1 71 -5 0 -10 -17 -10 -37
0 -34 -12 -84 -64 -280 -17 -63 -79 -200 -117 -260 -11 -18 -49 -62 -85 -99
-35 -37 -64 -71 -64 -75 0 -5 -5 -9 -11 -9 -6 0 -23 -12 -37 -27 -37 -38 -123
-103 -137 -103 -6 0 -28 -9 -49 -20 -66 -33 -141 -44 -208 -30 -32 7 -58 16
-58 20 0 7 45 30 61 30 5 0 32 16 59 35 27 19 54 35 58 35 10 0 182 166 182
176 0 3 16 24 35 47 19 22 35 44 35 49 0 5 16 31 35 59 19 28 35 56 35 62 0 5
11 34 25 63 35 74 96 267 106 337 5 33 11 62 13 66 7 11 34 192 47 312 9 90 9
169 0 355 -22 437 -65 919 -56 624 2 -69 11 -237 20 -375 9 -137 14 -311 13
-385 l-3 -135 -20 21 c-11 12 -36 40 -55 63 -19 23 -47 54 -62 71 -16 16 -28
33 -28 38 0 5 -11 19 -25 32 -14 13 -25 27 -25 32 0 5 -5 14 -10 21 -32 38
-80 107 -80 115 0 5 -7 15 -15 22 -9 7 -31 41 -51 76 -19 34 -41 68 -49 74 -8
7 -15 19 -15 26 0 8 -16 36 -35 63 -19 26 -35 52 -35 55 0 4 -14 27 -31 52
-16 24 -35 57 -40 73 -6 17 -21 37 -35 46 -33 22 -30 31 14 39 20 3 44 10 52
15 26 17 2 24 -42 13 -32 -8 -44 -8 -50 1 -11 17 -61 182 -103 332 -28 102
-34 118 -30 75 3 -30 18 -98 35 -150 16 -52 30 -102 30 -111 0 -9 9 -46 21
-83 12 -37 18 -70 14 -74 -3 -4 -73 -8 -153 -10 -169 -4 -166 -6 -218 98 -15
30 -35 66 -46 79 -10 13 -18 31 -18 40 0 9 -15 41 -32 71 -96 165 -178 545
-178 829 0 100 -3 141 -12 141 -25 0 12 -458 49 -599 14 -53 29 -121 34 -151
10 -59 46 -184 60 -212 5 -10 9 -29 9 -42 0 -14 16 -70 36 -125 34 -98 37
-125 11 -115 -7 2 -48 8 -91 12 -54 5 -81 12 -87 22 -4 8 -22 47 -39 85 -18
39 -48 102 -66 140 -19 39 -34 75 -34 82 0 7 -11 36 -24 65 -13 29 -29 71 -36
93 -7 22 -26 75 -42 117 -15 43 -28 85 -28 95 0 10 -16 60 -35 111 -34 90 -35
95 -35 240 0 136 19 443 36 572 5 40 4 52 -5 45 -23 -22 -51 -590 -45 -890 7
-291 24 -628 34 -670 5 -22 9 -49 9 -60 -1 -32 -27 45 -28 82 -1 18 -7 50 -15
70 -20 57 -33 102 -45 158 -6 28 -20 95 -32 150 -26 124 -42 218 -79 460 -18
124 -28 172 -29 138 -1 -51 31 -281 49 -358 5 -22 10 -55 10 -74 0 -58 114
-544 157 -671 69 -205 113 -346 113 -362 0 -15 51 -140 96 -237 14 -29 23 -55
21 -57 -5 -6 -47 32 -47 42 0 5 -16 26 -35 46 -19 20 -35 40 -35 45 0 4 -14
26 -30 47 -17 22 -30 44 -30 49 0 6 -6 18 -14 26 -7 9 -22 34 -33 56 -73 142
-93 184 -93 194 0 6 -14 40 -31 76 -16 35 -33 81 -36 102 -3 21 -9 43 -13 48
-10 13 -46 137 -54 188 -4 20 -11 37 -16 37 -13 0 -13 -7 4 -66 9 -32 16 -125
20 -269 3 -121 12 -260 20 -310 33 -197 47 -298 42 -309 -2 -6 -5 1 -5 16 -1
15 -6 30 -11 33 -32 20 -169 375 -186 483 -4 24 -10 40 -15 35 -11 -11 4 -71
62 -252 27 -85 48 -156 45 -158 -3 -4 -51 66 -86 126 -9 14 -27 44 -41 66 -55
86 -214 426 -239 510 -7 22 -23 63 -36 92 -13 28 -24 61 -24 72 0 11 -8 44
-18 73 -33 94 -42 125 -72 240 -49 191 -55 210 -63 202 -4 -5 -5 11 -1 34 4
29 3 42 -5 42 -7 0 -9 -9 -5 -25 4 -16 2 -25 -6 -25 -12 0 -8 -86 11 -250 6
-47 14 -130 19 -185 14 -142 48 -329 96 -520 14 -55 32 -129 40 -165 8 -36 26
-94 39 -130 14 -36 25 -76 25 -88 0 -12 4 -30 10 -40 17 -31 60 -145 56 -150
-5 -4 -98 89 -143 144 -49 61 -123 174 -123 189 0 8 -9 19 -20 25 -11 6 -20 8
-20 5 0 -3 9 -23 20 -45 11 -22 20 -47 20 -57 0 -11 16 -49 35 -86 19 -37 35
-72 35 -78 0 -5 16 -35 36 -66 19 -30 33 -57 30 -60 -15 -16 -213 194 -262
278 -6 10 -18 27 -27 37 -18 20 -67 105 -98 172 -12 25 -34 70 -50 101 -16 31
-29 67 -29 81 0 13 -6 32 -14 43 -22 32 -55 146 -58 200 l-3 50 50 3 c78 5 80
22 2 22 -54 0 -68 3 -76 18 -14 26 -37 154 -57 317 -9 77 -21 144 -25 149 -10
11 -10 -240 -1 -372 4 -51 4 -98 1 -104 -8 -12 -88 -6 -131 11 -21 8 -28 17
-28 38 0 16 -9 89 -20 163 -33 230 -43 408 -49 915 -4 357 -8 457 -13 367 -5
-92 -12 -132 -26 -160 -29 -55 -92 -215 -92 -232 0 -9 -14 -51 -31 -95 -17
-44 -35 -96 -39 -115 -4 -19 -19 -69 -33 -110 -14 -41 -41 -129 -60 -195 -20
-66 -50 -167 -68 -225 -17 -58 -35 -124 -40 -148 -32 -160 -45 -2 -29 356 6
152 15 322 20 377 5 55 9 136 8 180 l-1 80 -8 -60 c-23 -174 -42 -488 -43
-732 0 -150 -4 -273 -8 -273 -4 0 -42 11 -85 25 -86 27 -93 29 -93 17 0 -9
147 -62 173 -62 13 0 17 -9 17 -42 0 -43 24 -272 36 -350 l7 -41 -29 7 c-16 4
-37 15 -46 23 -25 22 -173 329 -197 408 -7 22 -21 59 -32 82 -10 24 -19 48
-19 55 0 7 -16 60 -35 118 -41 124 -99 340 -114 425 -6 33 -18 92 -26 130 -9
39 -20 104 -24 145 l-8 75 -2 -75 c0 -48 9 -119 25 -195 52 -239 51 -211 10
-305 -20 -46 -36 -89 -36 -97 0 -7 -13 -38 -30 -68 -16 -30 -30 -60 -30 -66 0
-9 -80 -185 -100 -219 -5 -8 -39 -73 -75 -145 -78 -153 -89 -173 -132 -242
-18 -29 -33 -58 -33 -64 0 -6 -8 -23 -19 -37 -10 -15 -28 -45 -40 -67 -33 -62
-25 -23 19 89 22 56 40 108 40 114 0 7 4 20 9 30 22 42 104 277 131 372 10 36
27 87 39 113 11 27 21 56 21 66 0 9 11 46 25 82 29 72 28 117 0 54 -10 -22
-21 -56 -25 -75 -4 -19 -20 -71 -35 -115 -16 -44 -43 -123 -60 -175 -18 -52
-41 -117 -50 -145 -10 -27 -27 -77 -38 -110 -11 -33 -27 -75 -35 -94 -8 -18
-25 -65 -39 -105 -13 -39 -31 -85 -39 -103 -7 -17 -14 -34 -14 -38 0 -24 -46
-65 -89 -80 -27 -9 -62 -27 -77 -40 -16 -14 -32 -25 -36 -25 -4 0 -12 -9 -18
-20 -10 -19 -10 -19 22 -2 18 9 35 20 38 23 9 11 105 59 118 59 25 0 -7 -39
-56 -67 -26 -14 -54 -32 -62 -39 -85 -71 -200 -183 -200 -196 0 -5 9 -4 20 2
11 6 20 15 20 20 0 6 5 10 11 10 6 0 28 14 49 30 21 17 40 30 44 30 12 0 -8
-36 -36 -65 -68 -69 -146 -192 -90 -142 25 23 35 21 22 -4 -20 -37 -1 -33 41
10 54 53 119 105 119 94 0 -10 -49 -136 -96 -248 -19 -44 -34 -84 -34 -88 0
-5 -16 -40 -35 -78 -19 -39 -35 -75 -35 -81 0 -17 -33 -88 -41 -88 -16 0 -21
87 -26 455 l-5 390 32 260 c17 143 35 301 39 350 10 116 64 458 102 650 17 83
34 173 39 200 4 28 19 97 33 155 14 58 29 121 32 140 4 19 20 78 36 130 16 52
29 102 29 112 0 10 16 66 36 123 19 58 34 113 32 122 -2 10 -17 -25 -35 -77z
m1502 -906 c10 -241 21 -393 36 -488 11 -76 19 -139 17 -141 -12 -12 -418 85
-442 106 -4 4 8 59 28 122 20 63 36 123 36 134 0 10 16 63 35 118 19 55 35
110 35 122 0 22 33 123 51 155 5 10 9 28 9 41 0 13 16 62 35 110 19 48 35 96
35 108 0 20 29 99 56 152 8 16 14 35 14 42 0 8 8 31 18 51 l17 37 2 -159 c2
-87 9 -317 18 -510z m-830 -114 c14 -41 30 -95 35 -120 9 -49 70 -230 99 -295
10 -22 24 -58 31 -80 7 -22 26 -65 42 -95 15 -30 28 -62 28 -70 0 -9 4 -20 9
-26 17 -16 61 -104 61 -121 0 -13 -15 -15 -107 -11 -138 6 -335 -7 -488 -33
-66 -11 -135 -22 -152 -25 -18 -3 -33 -9 -33 -14 0 -13 -1 -13 149 15 207 39
334 48 491 34 74 -6 146 -16 160 -23 21 -9 67 -82 58 -91 -2 -2 -63 4 -137 13
-124 14 -149 14 -330 -2 -216 -19 -247 -24 -370 -55 -112 -30 -120 -27 -82 29
17 25 31 51 31 58 0 7 5 18 10 25 27 32 60 90 60 104 0 9 7 24 14 32 19 21
116 211 116 227 0 6 7 17 14 24 18 14 56 90 56 111 0 8 8 26 17 39 23 33 53
92 53 104 0 6 13 37 29 71 40 80 101 230 101 246 0 21 7 6 35 -71z m2420 -160
c15 -41 31 -92 36 -112 5 -21 20 -62 34 -92 14 -30 25 -62 25 -72 0 -9 16 -50
35 -91 19 -41 35 -79 35 -84 0 -10 45 -107 117 -254 68 -139 96 -189 126 -224
15 -18 27 -39 27 -46 0 -7 6 -20 13 -27 6 -7 30 -39 52 -72 22 -32 45 -61 52
-63 6 -2 14 -15 17 -27 3 -13 17 -31 31 -40 13 -9 31 -29 40 -45 l15 -29 -73
-28 c-39 -15 -96 -43 -125 -61 -29 -18 -57 -33 -62 -33 -5 0 -32 -13 -58 -30
-27 -16 -54 -30 -59 -30 -6 0 -18 19 -27 43 -10 23 -33 72 -52 108 -19 37 -34
74 -34 83 0 9 -10 38 -23 64 -13 26 -29 65 -35 87 -7 22 -25 83 -41 135 -38
125 -42 142 -45 225 -2 39 -10 124 -19 190 -21 155 -46 618 -33 604 2 -2 16
-38 31 -79z m-1312 -335 c4 -41 3 -55 -4 -43 -5 10 -12 55 -14 100 -5 92 8 52
18 -57z m-48 -71 c7 -3 19 -56 29 -122 29 -202 91 -458 141 -574 13 -31 -10
-19 -50 25 -37 40 -135 218 -135 245 0 7 -13 42 -30 78 -16 36 -32 82 -36 102
-3 20 -17 73 -29 117 -12 44 -26 95 -30 114 l-7 34 68 -8 c37 -4 73 -9 79 -11z
m1900 -244 c8 -8 20 -34 28 -57 14 -42 14 -43 -7 -43 -27 0 -52 41 -59 95 -2
22 -14 62 -26 88 -34 77 -24 78 15 2 20 -38 42 -77 49 -85z m-2528 -75 c2 -7
3 -28 1 -46 l-3 -33 -27 42 c-16 23 -28 46 -28 50 0 14 51 1 57 -13z m2423
-36 l76 -12 27 -59 c15 -33 27 -68 27 -77 0 -9 4 -21 9 -26 5 -6 25 -50 45
-100 20 -49 49 -117 66 -149 51 -100 34 -116 -39 -36 -65 70 -135 166 -261
360 -5 8 -21 36 -35 63 -29 55 -32 53 85 36z m524 -25 c9 -8 16 -26 16 -39 0
-14 11 -48 24 -77 14 -29 30 -72 36 -95 6 -24 24 -72 40 -109 17 -36 30 -72
30 -80 0 -8 16 -46 36 -85 19 -39 34 -72 32 -74 -2 -1 -39 14 -83 36 -44 21
-86 38 -94 38 -15 1 -38 24 -91 91 -19 25 -43 53 -52 62 -10 10 -18 25 -18 33
0 9 -6 18 -14 21 -15 6 -116 156 -116 173 0 5 -6 16 -13 23 -17 18 -57 75 -57
82 0 3 66 7 148 9 81 1 150 4 154 5 4 1 14 -5 22 -14z m-341 -12 c9 -8 17 -21
17 -28 0 -7 6 -19 13 -26 7 -7 30 -42 52 -78 21 -36 43 -68 48 -71 5 -4 14
-15 20 -26 30 -50 79 -119 107 -149 16 -18 30 -38 30 -43 0 -6 16 -23 35 -38
19 -15 35 -33 35 -40 0 -6 14 -21 30 -33 17 -12 30 -27 30 -35 0 -7 6 -15 13
-18 6 -2 9 -7 6 -11 -4 -4 -24 0 -45 8 -22 8 -72 17 -112 20 -80 7 -105 18
-121 53 -16 34 -14 43 9 43 11 0 20 5 20 10 0 6 -13 10 -29 10 -21 0 -36 8
-50 29 -12 16 -21 33 -21 39 0 15 -50 121 -61 127 -5 4 -9 15 -9 25 0 10 -14
49 -32 87 -17 37 -34 82 -38 98 -4 17 -11 38 -15 47 -6 15 -2 18 21 16 16 -1
37 -8 47 -16z m-3537 -81 c-7 -10 -87 -51 -101 -51 -15 0 9 19 50 39 44 22 59
26 51 12z m3954 -17 c0 -8 -4 -12 -10 -9 -5 3 -10 10 -10 16 0 5 5 9 10 9 6 0
10 -7 10 -16z m-3515 -60 c-22 -8 -49 -13 -60 -11 -13 2 -3 7 25 14 64 16 82
14 35 -3z m208 9 c-24 -2 -62 -2 -85 0 -24 2 -5 4 42 4 47 0 66 -2 43 -4z m97
-3 c0 -5 -4 -10 -9 -10 -6 0 -13 5 -16 10 -3 6 1 10 9 10 9 0 16 -4 16 -10z
m135 -31 c49 -14 54 -18 28 -18 -17 -1 -34 3 -37 8 -3 5 -26 12 -51 15 -24 4
-47 12 -51 17 -6 11 14 7 111 -22z m-198 -15 c-3 -3 -12 -4 -19 -1 -8 3 -5 6
6 6 11 1 17 -2 13 -5z m333 -28 c8 -7 24 -16 34 -20 10 -3 16 -9 13 -12 -6 -6
-30 5 -92 41 l-30 17 30 -7 c17 -4 37 -12 45 -19z m-155 -4 c-3 -3 -11 0 -18
7 -9 10 -8 11 6 5 10 -3 15 -9 12 -12z m42 -8 c-3 -3 -12 -4 -19 -1 -8 3 -5 6
6 6 11 1 17 -2 13 -5z m40 -10 c-3 -3 -12 -4 -19 -1 -8 3 -5 6 6 6 11 1 17 -2
13 -5z m197 -40 c19 -19 21 -31 3 -16 -7 6 -24 16 -38 21 -23 9 -23 10 -2 10
12 1 29 -6 37 -15z m36 -34 c0 -5 -8 -10 -17 -10 -15 0 -16 2 -3 10 19 12 20
12 20 0z m30 -25 c14 -19 14 -19 -2 -6 -10 7 -18 18 -18 24 0 6 1 8 3 6 1 -2
9 -13 17 -24z m540 -27 c0 -6 -7 -5 -15 2 -8 7 -15 17 -15 22 0 6 7 5 15 -2 8
-7 15 -17 15 -22z m-563 16 c-3 -3 -12 -4 -19 -1 -8 3 -5 6 6 6 11 1 17 -2 13
-5z m33 -24 c8 -5 12 -11 10 -14 -3 -2 -14 2 -24 10 -22 15 -10 19 14 4z
m-840 -50 c19 -10 47 -25 63 -32 15 -7 27 -16 27 -20 0 -5 11 -6 25 -2 16 4
35 0 50 -10 42 -28 20 -39 -61 -33 l-73 7 -52 -40 c-57 -43 -69 -46 -117 -29
-37 13 -65 60 -56 96 8 32 88 83 128 83 17 0 47 -9 66 -20z m3289 -76 c3 -16
1 -17 -13 -5 -19 16 -21 34 -3 29 6 -3 14 -13 16 -24z m-2874 -24 c0 -18 -6
-26 -23 -28 -13 -2 -30 2 -38 9 -13 10 -12 14 3 31 24 27 58 20 58 -12z m3160
21 c3 -5 20 -13 38 -16 55 -13 134 -75 152 -120 27 -71 22 -71 -61 0 -101 87
-159 145 -147 145 6 0 14 -4 18 -9z m-2735 -91 c11 -7 12 -14 4 -27 -14 -23
-27 -26 -49 -9 -16 12 -17 16 -6 30 15 18 29 20 51 6z m-99 -16 c11 -14 10
-19 -9 -35 -26 -20 -52 -15 -52 10 0 37 38 53 61 25z m-346 -194 c0 -8 -8 -16
-17 -18 -13 -2 -18 3 -18 18 0 15 5 20 18 18 9 -2 17 -10 17 -18z m2880 0
c-28 -12 -78 -12 -70 0 3 6 25 10 48 9 33 0 38 -2 22 -9z m-92 -7 c-7 -2 -21
-2 -30 0 -10 3 -4 5 12 5 17 0 24 -2 18 -5z m-2888 -24 c10 -31 -16 -55 -44
-40 -27 15 -27 35 2 49 31 15 35 15 42 -9z m2822 6 c0 -8 -4 -12 -9 -9 -4 3
-21 -1 -38 -9 -16 -8 -31 -12 -34 -9 -3 3 11 13 31 23 48 22 50 22 50 4z m233
5 c0 -5 7 -10 15 -10 8 0 15 -7 15 -15 0 -8 5 -15 10 -15 6 0 19 -15 30 -32
11 -18 20 -28 20 -23 1 13 16 -13 25 -44 5 -15 3 -21 -3 -17 -6 3 -12 3 -15
-1 -2 -5 -2 -2 -1 5 2 6 -1 12 -6 12 -5 0 -7 6 -5 13 2 6 -6 24 -20 40 -24 27
-42 37 -29 15 4 -7 3 -8 -4 -4 -6 4 -9 12 -7 19 2 7 -9 23 -26 35 -25 20 -34
22 -59 13 -35 -12 -41 -5 -7 9 30 12 67 12 67 0z m-410 -78 c0 -8 -43 -32 -58
-32 -6 0 49 40 56 40 1 0 2 -4 2 -8z m80 4 c0 -3 -4 -8 -10 -11 -5 -3 -10 -1
-10 4 0 6 5 11 10 11 6 0 10 -2 10 -4z m180 -13 c3 -2 -26 -3 -63 -2 -37 1
-72 -2 -77 -7 -6 -6 -6 -69 0 -171 10 -161 15 -193 31 -193 9 0 62 28 159 85
36 21 82 46 103 57 20 10 37 22 37 27 0 5 8 12 18 15 9 3 -1 -10 -23 -30 -22
-21 -75 -69 -118 -108 -43 -39 -85 -81 -93 -94 -15 -22 -13 -26 24 -75 22 -29
56 -70 76 -91 20 -22 36 -43 36 -48 0 -4 4 -8 10 -8 5 0 1 15 -10 33 -41 67
-18 90 64 64 93 -30 150 -133 84 -150 -12 -4 -33 -4 -45 -1 -27 7 -29 -1 -7
-23 26 -26 0 -39 -33 -17 -15 10 -30 19 -33 19 -3 0 -11 4 -19 9 -11 7 -13 5
-6 -10 18 -43 17 -72 -2 -83 -33 -17 -59 -2 -83 48 -18 39 -20 52 -11 70 14
25 20 26 49 5 13 -9 26 -14 28 -11 6 6 -57 67 -69 67 -5 0 -27 16 -50 35 -22
19 -45 35 -51 35 -5 0 -17 7 -27 16 -16 14 -18 14 -28 -4 -5 -10 -13 -78 -17
-151 -6 -109 -5 -131 7 -131 8 0 46 11 84 25 58 20 72 22 83 11 15 -14 22
-126 9 -126 -4 0 -3 -9 3 -20 14 -26 8 -25 -53 6 -44 22 -72 27 -196 35 -79 5
-145 10 -146 11 -34 51 -34 49 -17 78 l16 28 45 -20 c55 -23 137 -36 127 -20
-4 6 -9 55 -11 109 -2 54 -7 110 -10 125 l-7 28 -41 -25 c-23 -14 -53 -30 -67
-37 -14 -7 -43 -27 -66 -45 -23 -18 -45 -33 -49 -33 -5 0 -19 -10 -32 -22
l-23 -21 0 22 c0 14 11 28 30 39 16 9 30 22 30 29 0 7 15 27 33 46 53 55 106
121 107 133 0 7 -11 22 -25 35 -14 13 -32 36 -40 51 -11 20 -26 29 -53 33 -78
13 -82 15 -82 38 1 43 22 57 87 57 73 0 105 -18 85 -49 -11 -19 -8 -23 28 -46
57 -36 70 -33 70 14 0 35 -3 39 -30 44 -21 5 -28 11 -24 22 7 17 22 19 44 5
12 -8 17 0 26 43 6 29 19 87 28 129 9 42 16 80 15 85 -1 4 -1 12 0 16 1 8 152
-1 161 -10z m-223 1 c-3 -3 -12 -4 -19 -1 -8 3 -5 6 6 6 11 1 17 -2 13 -5z
m383 -29 c-10 -12 -10 -15 0 -15 8 0 11 -3 7 -6 -3 -3 -11 -3 -17 1 -8 5 -8
10 0 20 7 8 8 20 4 27 -5 10 -4 10 6 1 11 -10 11 -15 0 -28z m-2632 8 c36 -9
96 -51 104 -74 4 -11 5 -33 1 -49 -5 -30 -6 -30 -69 -30 -36 0 -64 -4 -64 -10
0 -39 -62 30 -76 84 -13 52 24 104 64 90 8 -2 26 -7 40 -11z m2120 -17 c-7 -8
-15 -12 -17 -11 -5 6 10 25 20 25 5 0 4 -6 -3 -14z m637 -56 c3 -5 -1 -10 -10
-10 -9 0 -13 5 -10 10 3 6 8 10 10 10 2 0 7 -4 10 -10z m-220 -76 c0 -16 -7
-19 -42 -20 -52 0 -57 19 -10 33 41 14 52 11 52 -13z m-2605 -26 c22 -23 40
-50 40 -60 0 -25 -34 -40 -83 -36 -38 2 -41 0 -49 -27 -5 -20 -3 -36 8 -52 14
-22 13 -23 -13 -23 -62 0 -540 22 -562 26 -21 4 -22 7 -8 22 8 9 17 34 20 54
3 20 15 46 27 58 22 22 23 22 68 4 26 -9 57 -24 69 -32 36 -23 169 -27 257 -8
42 10 85 14 96 11 20 -6 20 -5 6 28 -19 47 0 77 49 77 27 0 43 -9 75 -42z
m2780 -143 c24 -29 -21 -60 -48 -33 -9 9 -8 16 5 30 20 22 27 22 43 3z m-670
-3079 c0 -3 -4 -8 -10 -11 -5 -3 -10 -1 -10 4 0 6 5 11 10 11 6 0 10 -2 10 -4z
m470 -15 c0 -6 -4 -13 -10 -16 -5 -3 -10 1 -10 9 0 9 5 16 10 16 6 0 10 -4 10
-9z"/>
<path d="M3833 8305 c-34 -93 -41 -130 -46 -265 l-5 -125 13 120 c13 117 37
231 56 268 6 10 9 28 7 40 -2 16 -9 5 -25 -38z"/>
<path d="M8620 8356 c0 -5 78 -56 87 -56 9 0 -70 59 -79 60 -5 0 -8 -2 -8 -4z"/>
<path d="M8735 8280 c3 -5 10 -10 16 -10 5 0 9 5 9 10 0 6 -7 10 -16 10 -8 0
-12 -4 -9 -10z"/>
<path d="M8770 8260 c0 -11 38 -32 50 -28 5 2 -4 11 -20 20 -17 9 -30 13 -30
8z"/>
<path d="M686 8243 c-6 -14 -5 -15 5 -6 7 7 10 15 7 18 -3 3 -9 -2 -12 -12z"/>
<path d="M7490 8228 c0 -15 23 -74 51 -130 5 -10 9 -26 9 -36 0 -9 14 -50 31
-91 34 -81 33 -107 -2 -39 -12 23 -24 38 -26 31 -2 -7 12 -45 31 -84 20 -40
36 -83 36 -95 0 -13 4 -25 8 -28 11 -7 55 -125 76 -206 33 -127 38 -146 55
-235 36 -180 72 -415 102 -660 5 -38 13 -95 18 -125 l9 -55 1 62 c1 57 -26
271 -50 396 -5 29 -14 94 -19 146 -6 52 -21 142 -35 200 -14 58 -32 138 -41
176 -9 39 -24 99 -34 135 -10 36 -35 126 -56 200 -20 74 -50 171 -67 215 -16
44 -36 100 -43 125 -18 57 -53 121 -54 98z"/>
<path d="M6037 8128 c4 -150 37 -571 41 -518 2 25 -1 119 -7 210 -6 91 -14
220 -17 288 -4 67 -9 122 -13 122 -3 0 -5 -46 -4 -102z"/>
<path d="M8851 8216 c16 -16 82 -56 92 -56 7 0 -4 10 -23 22 -19 13 -36 26
-38 30 -2 5 -11 8 -19 8 -9 0 -14 -2 -12 -4z"/>
<path d="M652 8185 c-7 -15 -11 -30 -8 -32 7 -7 28 36 24 49 -2 6 -9 -2 -16
-17z"/>
<path d="M8670 8143 c19 -8 54 -24 77 -35 22 -11 49 -18 58 -16 19 3 -131 68
-156 67 -8 0 2 -7 21 -16z"/>
<path d="M8960 8156 c0 -9 112 -67 123 -63 6 2 -14 18 -45 35 -50 29 -78 39
-78 28z"/>
<path d="M616 8093 c-12 -12 -46 -96 -41 -101 2 -3 9 7 14 22 6 14 18 40 26
56 15 29 16 37 1 23z"/>
<path d="M8843 8083 c9 -2 17 -8 17 -13 0 -4 10 -8 23 -8 12 0 42 -7 67 -17
25 -9 95 -28 155 -42 61 -13 128 -28 150 -33 41 -9 135 -13 135 -6 0 2 3 12 7
21 5 15 3 16 -15 6 -30 -16 -73 -14 -171 9 -47 10 -120 26 -161 35 -41 9 -79
20 -85 24 -13 11 -99 31 -122 30 -17 -1 -17 -2 0 -6z"/>
<path d="M9100 8086 c0 -3 25 -17 56 -31 63 -30 161 -48 212 -39 54 10 36 19
-43 20 -41 1 -80 6 -87 11 -24 19 -138 51 -138 39z"/>
<path d="M8545 8071 c-3 -5 -1 -12 5 -16 5 -3 10 1 10 9 0 18 -6 21 -15 7z"/>
<path d="M8530 8030 c19 -13 30 -13 30 0 0 6 -10 10 -22 10 -19 0 -20 -2 -8
-10z"/>
<path d="M530 7885 c-17 -43 -29 -79 -27 -81 2 -3 18 30 36 72 17 43 29 79 27
81 -2 2 -18 -30 -36 -72z"/>
<path d="M8461 7914 c0 -11 3 -14 6 -6 3 7 2 16 -1 19 -3 4 -6 -2 -5 -13z"/>
<path d="M8552 7848 c15 -44 20 -49 41 -33 16 12 16 13 -8 19 -16 4 -25 13
-25 26 0 11 -4 20 -9 20 -6 0 -6 -13 1 -32z"/>
<path d="M8500 7840 c0 -5 5 -10 10 -10 6 0 10 5 10 10 0 6 -4 10 -10 10 -5 0
-10 -4 -10 -10z"/>
<path d="M8520 7804 c0 -9 5 -14 12 -12 18 6 21 28 4 28 -9 0 -16 -7 -16 -16z"/>
<path d="M481 7738 c-7 -18 -16 -40 -21 -48 -10 -21 -24 -87 -16 -79 9 8 57
152 52 156 -2 2 -9 -11 -15 -29z"/>
<path d="M2386 7619 c-2 -13 -18 -87 -35 -164 -17 -77 -31 -150 -31 -163 0
-12 -13 -96 -29 -186 -17 -89 -35 -216 -40 -282 -6 -65 -18 -189 -26 -274 -48
-505 -48 -1193 1 -1745 8 -93 17 -221 21 -283 3 -62 11 -115 16 -119 7 -4 8
26 3 88 -4 52 -11 168 -16 259 -5 91 -14 246 -21 345 -16 235 -16 1004 0 1210
6 88 16 230 21 315 5 85 21 232 35 325 15 94 30 202 35 240 5 39 20 122 33
185 33 150 50 260 44 267 -4 3 -8 -5 -11 -18z"/>
<path d="M431 7573 c-1 -6 -4 -20 -7 -30 -5 -17 -5 -17 6 0 6 10 9 23 6 30 -3
9 -5 9 -5 0z"/>
<path d="M1747 7466 c-16 -49 -32 -112 -37 -140 -5 -28 -18 -85 -29 -126 -11
-41 -24 -106 -30 -145 -5 -38 -22 -124 -36 -190 -15 -66 -30 -156 -35 -200 -5
-44 -20 -159 -34 -255 -14 -96 -29 -227 -33 -290 -5 -101 -10 -124 -40 -188
-18 -40 -33 -82 -33 -93 0 -11 -6 -30 -14 -42 -8 -12 -28 -63 -45 -113 -17
-51 -36 -105 -42 -120 -7 -16 -20 -56 -30 -89 -35 -124 -76 -226 -100 -253
-45 -49 -94 -116 -118 -162 -13 -25 -30 -52 -37 -61 -8 -8 -14 -21 -14 -27 0
-6 -15 -44 -34 -84 -38 -82 -49 -119 -77 -268 -26 -136 -20 -282 16 -424 25
-95 25 -106 15 -215 -24 -264 -40 -454 -41 -479 -1 -25 -2 -24 -10 8 -6 19
-22 66 -36 103 -14 37 -31 93 -38 125 -7 31 -24 104 -38 162 -14 58 -38 186
-53 285 -26 163 -28 205 -29 445 0 302 6 402 35 548 11 56 20 116 20 133 0 16
16 102 35 189 19 87 35 171 35 186 0 14 13 82 30 150 16 68 35 156 41 196 6
40 19 105 29 143 10 39 24 99 30 135 12 69 48 202 106 385 18 61 34 117 34
125 0 8 13 48 30 87 16 40 32 90 35 110 6 37 6 37 -8 13 -8 -14 -24 -54 -35
-90 -12 -36 -37 -113 -57 -171 -19 -59 -35 -114 -35 -123 0 -10 -14 -59 -31
-111 -16 -52 -34 -116 -38 -142 -5 -26 -20 -92 -35 -147 -14 -54 -26 -108 -26
-121 0 -12 -16 -88 -35 -168 -19 -80 -35 -157 -35 -172 0 -15 -16 -94 -35
-176 -19 -82 -35 -164 -35 -183 0 -18 -14 -99 -30 -179 -16 -81 -30 -163 -30
-184 0 -39 -31 -243 -55 -368 -12 -62 -13 -13 -11 445 2 320 7 540 14 580 31
180 70 522 59 510 -8 -8 -34 -167 -56 -340 -47 -377 -58 -643 -42 -1040 30
-748 33 -787 75 -1045 8 -49 20 -121 26 -160 62 -407 125 -656 210 -827 25
-51 4 -51 -43 0 -60 63 -117 133 -117 143 0 5 -11 27 -25 49 -14 22 -37 77
-52 121 -14 44 -29 77 -34 72 -4 -4 3 -55 17 -113 41 -171 41 -161 0 -115 -19
22 -35 45 -36 51 0 6 -8 18 -17 25 -9 8 -29 41 -45 74 -16 33 -40 78 -53 100
-13 22 -24 49 -24 60 -1 12 -5 25 -9 30 -12 14 -44 103 -52 145 -4 19 -19 78
-33 130 -14 53 -31 136 -37 185 -6 50 -13 99 -16 110 -19 81 -31 325 -23 470
18 336 65 740 95 818 4 11 1 17 -8 17 -17 0 -34 -64 -48 -185 -5 -44 -20 -125
-34 -179 -25 -96 -34 -162 -58 -411 -15 -155 -14 -604 1 -720 6 -49 16 -131
22 -181 8 -81 33 -187 54 -236 4 -11 3 -18 -3 -18 -11 0 -52 65 -52 83 0 7
-14 39 -30 71 -17 32 -30 65 -30 73 0 7 -13 43 -30 79 -16 36 -32 82 -36 102
-3 20 -19 80 -35 132 -15 52 -33 131 -39 175 -5 44 -17 130 -25 190 -34 244
-26 771 16 1090 5 44 9 107 7 140 -3 56 -4 53 -16 -50 -7 -60 -17 -143 -22
-184 -5 -41 -14 -79 -21 -85 -9 -8 -10 -8 -5 2 9 15 -6 16 -22 0 -9 -9 -12
-255 -12 -1047 0 -569 3 -1031 7 -1027 4 3 8 75 10 159 5 237 12 317 29 317
10 0 14 12 14 40 0 48 17 53 23 8 3 -20 3 -17 2 9 -2 34 1 42 18 47 15 4 18 9
12 23 -5 10 -10 38 -13 63 -2 25 -9 48 -16 52 -8 6 -7 8 2 8 6 0 12 10 12 23
0 18 -2 19 -10 7 -8 -11 -9 -8 -4 13 4 19 2 27 -7 27 -12 0 -12 2 0 9 8 5 11
16 8 25 -4 10 -1 16 7 16 8 0 17 -12 20 -27 4 -16 14 -53 22 -83 8 -30 20 -73
26 -95 10 -41 15 -54 40 -115 8 -19 21 -51 27 -70 7 -19 20 -48 28 -63 8 -16
13 -31 10 -34 -3 -3 -1 -10 4 -17 6 -6 36 -63 67 -126 38 -76 64 -116 76 -118
16 -4 18 0 11 34 -4 22 -11 41 -15 44 -12 8 -40 91 -40 120 0 14 -9 57 -20 95
-37 124 -49 219 -50 392 -2 252 4 267 26 63 3 -30 12 -68 19 -85 7 -16 19 -67
25 -113 6 -45 27 -131 46 -190 19 -58 33 -115 30 -125 -2 -11 -2 -16 1 -13 8
7 53 -82 53 -105 0 -10 6 -24 13 -31 7 -7 16 -20 19 -30 4 -9 25 -46 47 -82
22 -37 34 -66 28 -67 -7 0 -2 -5 10 -11 13 -6 25 -19 28 -29 4 -10 17 -27 31
-38 13 -10 24 -23 24 -29 0 -12 57 -62 71 -62 15 0 11 19 -16 72 -35 69 -31
72 10 11 79 -118 275 -277 305 -247 7 7 4 18 -7 34 -17 24 -36 70 -69 170 -9
25 -19 83 -24 130 -5 47 -12 105 -15 130 l-6 45 19 -55 c10 -30 25 -66 34 -80
9 -14 24 -47 34 -75 10 -27 21 -52 25 -55 8 -6 43 -72 44 -82 0 -4 16 -28 36
-55 20 -26 48 -66 62 -89 50 -81 266 -264 311 -264 3 0 -11 35 -31 77 -25 53
-42 112 -54 183 -24 146 -30 210 -18 185 77 -161 283 -382 402 -432 16 -7 31
-22 34 -33 5 -20 23 -18 23 3 0 7 -16 37 -36 67 -36 55 -88 190 -72 190 4 0 8
-4 8 -9 0 -31 154 -144 260 -191 25 -11 53 -25 63 -30 24 -14 22 1 -9 62 -14
28 -32 69 -39 92 -7 23 -16 50 -20 61 l-8 20 16 -20 c9 -11 17 -25 17 -32 0
-11 37 -73 60 -100 5 -7 10 -18 10 -25 0 -8 14 -28 30 -46 17 -18 30 -38 30
-43 0 -6 4 -8 10 -4 9 6 6 18 -30 100 -48 109 -51 128 -17 99 12 -10 52 -35
89 -54 65 -34 66 -34 60 -69 -10 -61 -29 -115 -43 -122 -8 -4 -43 -15 -79 -24
-36 -10 -103 -31 -150 -47 -47 -16 -98 -33 -115 -37 -16 -4 -60 -22 -97 -40
-37 -17 -73 -31 -81 -31 -8 0 -41 -13 -73 -29 -32 -16 -97 -46 -144 -66 -47
-19 -115 -51 -151 -70 -37 -19 -76 -35 -87 -35 -11 0 -25 -6 -31 -14 -7 -8
-23 -17 -36 -20 -14 -4 -25 -11 -25 -16 0 -6 -5 -10 -12 -10 -6 0 -49 -18 -94
-40 -46 -22 -86 -40 -89 -40 -4 0 -26 -13 -50 -29 -24 -16 -57 -32 -74 -36
-17 -4 -31 -10 -31 -14 0 -4 -26 -21 -57 -36 -32 -16 -76 -40 -98 -55 -22 -14
-53 -32 -70 -40 -16 -8 -32 -18 -35 -21 -3 -4 -30 -19 -60 -34 -30 -15 -61
-36 -68 -46 -7 -11 -22 -19 -33 -19 -10 0 -28 -9 -39 -20 -10 -10 -36 -28 -57
-39 -21 -11 -53 -31 -72 -45 -19 -14 -38 -23 -42 -20 -5 3 -9 0 -9 -6 0 -7 -7
-9 -16 -6 -12 4 -15 2 -10 -9 3 -8 2 -14 -2 -13 -9 3 -87 -50 -123 -83 -15
-15 -31 -24 -34 -21 -3 3 -5 -2 -5 -12 0 -14 3 -15 23 -5 12 6 41 27 64 45 23
19 46 34 52 34 7 0 33 17 60 37 27 21 61 46 77 55 34 21 52 32 116 75 26 18
51 33 54 33 4 0 28 16 54 35 26 19 51 35 55 35 4 0 27 14 52 30 24 17 50 30
57 30 7 0 26 10 42 22 15 13 82 50 149 84 66 34 138 70 160 82 34 18 284 140
515 251 36 17 70 31 77 31 6 0 38 13 70 29 33 16 72 33 89 37 16 4 62 22 102
40 41 19 79 34 87 34 7 0 55 15 106 34 52 18 118 36 147 40 l52 7 0 -89 c0
-86 22 -192 39 -192 5 0 14 -14 20 -31 6 -18 17 -37 25 -43 18 -14 56 -82 56
-100 0 -31 -48 -51 -172 -71 -69 -11 -108 -40 -108 -80 0 -15 6 -11 25 17 19
28 34 38 63 43 156 24 188 38 205 89 7 22 5 32 -12 50 -12 12 -21 27 -21 32 0
5 -9 18 -21 27 -32 28 -78 135 -85 200 -11 90 32 321 63 345 24 18 25 17 84
-38 29 -28 57 -50 61 -50 4 0 -6 23 -23 51 -31 53 -32 75 -4 86 11 4 37 -15
81 -61 35 -36 68 -66 72 -66 5 0 17 -9 28 -21 18 -21 146 -89 192 -103 31 -10
28 8 -9 54 -58 72 -13 108 57 46 74 -68 236 -176 262 -176 8 0 29 -8 46 -19
73 -44 100 -32 52 24 -33 38 -39 65 -16 65 10 0 25 -6 32 -13 17 -17 87 -57
98 -57 5 0 34 -16 64 -35 30 -19 60 -35 66 -35 7 0 39 -16 71 -35 33 -19 64
-35 70 -35 5 0 35 -13 66 -30 31 -16 62 -30 69 -30 8 0 42 -13 76 -30 65 -31
161 -70 238 -97 92 -33 207 -72 265 -89 33 -10 65 -21 70 -25 6 -3 35 -12 65
-19 30 -7 75 -18 100 -26 140 -40 190 -48 310 -48 l126 -1 56 34 c62 38 78 63
77 119 l-1 37 -10 -35 c-14 -50 -24 -56 -43 -27 -23 35 -24 133 -1 155 14 15
19 14 55 -4 42 -21 124 -106 135 -139 9 -30 44 -71 52 -63 4 4 -1 19 -10 34
-10 14 -15 28 -13 30 8 8 74 -23 110 -50 19 -15 37 -26 41 -26 3 0 41 -36 84
-79 100 -103 114 -120 136 -156 19 -33 66 -72 66 -56 0 6 -6 14 -13 18 -7 4
-26 26 -43 48 -120 163 -285 303 -383 325 -36 8 -34 21 10 59 44 38 114 56
155 41 14 -6 39 -25 56 -42 21 -23 27 -26 19 -11 -18 34 -78 76 -110 75 -37
-1 -96 -26 -138 -58 l-34 -25 -50 45 c-28 25 -68 50 -90 56 -44 12 -46 19 -22
61 19 32 16 31 123 31 l75 0 -66 8 c-37 4 -122 19 -190 33 -68 14 -146 28
-173 31 -27 3 -92 19 -145 35 -94 29 -164 41 -176 30 -3 -3 39 -18 92 -33 54
-14 105 -28 113 -30 8 -3 24 -5 36 -5 11 -1 39 -18 61 -38 22 -21 56 -51 75
-68 118 -104 115 -100 123 -157 4 -29 11 -57 15 -63 4 -5 10 -22 14 -37 8 -37
-27 -62 -107 -78 -51 -9 -81 -9 -162 4 -191 29 -297 56 -525 133 -41 13 -88
28 -105 33 -16 4 -63 22 -104 39 -41 17 -78 31 -83 31 -8 0 -36 11 -133 55
-16 7 -43 18 -60 25 -16 7 -37 16 -45 21 -8 5 -22 12 -30 15 -59 24 -238 109
-250 120 -8 6 -44 26 -80 43 -65 31 -120 61 -130 71 -3 3 -21 13 -42 22 -45
21 -83 69 -97 126 -7 23 -15 42 -19 42 -13 0 -42 86 -47 141 -3 29 -8 67 -11
83 -4 19 -3 26 5 22 6 -4 11 -12 11 -18 0 -13 29 -72 65 -133 13 -22 30 -51
37 -65 7 -14 15 -27 19 -30 3 -3 13 -18 23 -35 10 -16 29 -38 43 -49 l25 -19
-7 34 c-4 19 -23 62 -41 97 -19 34 -34 69 -34 77 0 9 -4 23 -9 33 -23 46 -40
92 -33 92 4 0 16 -7 26 -15 11 -8 26 -15 32 -15 7 0 28 -10 46 -23 34 -22 184
-98 293 -148 33 -15 90 -41 126 -58 37 -16 79 -33 95 -37 16 -4 62 -20 102
-35 77 -31 102 -35 102 -19 0 13 -45 35 -101 48 -25 6 -73 25 -107 42 -33 16
-68 30 -77 30 -9 0 -29 6 -43 14 -15 8 -108 54 -207 102 -99 48 -202 102 -230
119 -27 17 -57 34 -66 37 -9 4 -19 22 -22 42 -3 19 -12 50 -21 68 -18 40 -106
393 -106 428 0 14 -16 106 -35 205 -31 160 -34 171 -30 100 2 -44 16 -138 31
-210 15 -71 30 -152 34 -180 4 -27 19 -97 34 -155 15 -58 33 -134 40 -170 13
-63 38 -142 78 -245 32 -80 32 -82 4 -43 -14 20 -26 42 -26 48 0 6 -13 37 -29
68 -81 159 -101 203 -101 214 0 7 -15 51 -34 98 -45 114 -96 266 -106 315 -12
59 -28 95 -41 95 -6 0 -9 -8 -6 -17 3 -10 16 -52 28 -93 12 -41 32 -103 45
-138 13 -34 24 -82 24 -107 0 -75 20 -185 52 -280 16 -49 33 -103 38 -120 4
-16 21 -59 39 -94 17 -36 31 -72 31 -82 0 -10 3 -19 8 -21 11 -5 135 -259 128
-265 -8 -8 -159 70 -219 114 -53 39 -187 171 -187 185 0 4 -15 29 -33 55 -19
27 -37 56 -40 66 -10 26 -31 21 -22 -5 4 -13 13 -50 20 -83 16 -75 33 -123 55
-155 10 -14 20 -35 24 -46 6 -21 5 -21 -28 -10 -43 15 -173 103 -180 122 -3 8
-17 19 -31 24 -14 5 -29 21 -35 34 -5 13 -17 30 -27 37 -34 25 -119 155 -163
249 -47 101 -75 149 -78 135 -2 -9 11 -46 28 -83 17 -37 35 -89 40 -115 10
-49 51 -163 76 -209 63 -117 -116 89 -224 257 -7 11 -26 49 -43 84 -17 35 -41
81 -55 102 -13 21 -24 46 -24 54 0 9 -15 50 -34 93 -33 76 -92 254 -107 322
-4 19 -15 62 -23 95 -9 33 -19 102 -22 153 -4 51 -11 95 -16 98 -14 9 4 -225
29 -371 13 -77 28 -167 33 -200 17 -113 90 -398 121 -470 4 -11 13 -40 19 -65
7 -25 18 -55 26 -68 9 -13 14 -28 12 -33 -2 -5 -10 5 -19 23 -37 73 -89 187
-89 193 0 3 -11 30 -24 58 -13 29 -36 88 -51 132 -14 44 -33 94 -41 112 -8 17
-14 39 -14 50 0 10 -15 68 -35 128 -51 162 -95 326 -105 392 -5 32 -21 101
-35 152 -14 52 -25 108 -25 124 0 16 -13 94 -30 172 -16 79 -34 191 -39 250
-6 58 -15 134 -20 168 -35 225 -51 502 -51 887 0 368 9 534 40 805 12 99 23
207 26 240 12 157 138 792 186 942 11 34 18 73 16 85 -2 15 -13 -9 -31 -66z
m-260 -1558 c-3 -8 -6 -5 -6 6 -1 11 2 17 5 13 3 -3 4 -12 1 -19z m-4 -555 c3
-5 8 -75 12 -156 l7 -148 -42 26 c-33 21 -50 25 -77 20 -54 -10 -120 -42 -144
-69 -13 -15 -28 -26 -35 -26 -7 0 -33 -37 -59 -82 -26 -46 -55 -94 -64 -108
-10 -14 -31 -50 -47 -80 -16 -30 -37 -64 -46 -74 -20 -22 -24 -40 -7 -34 7 2
24 27 40 56 15 28 41 72 58 97 17 25 31 52 31 60 0 8 8 20 18 27 9 7 26 29 36
48 66 123 212 196 289 145 40 -26 47 -51 58 -208 5 -76 12 -143 15 -149 4 -5
-17 -31 -47 -56 -55 -48 -169 -194 -169 -216 0 -7 -7 -26 -15 -42 -27 -56 -48
-156 -41 -209 12 -105 34 -154 95 -214 31 -31 66 -63 77 -72 25 -20 159 -84
209 -102 34 -11 39 -18 56 -72 10 -33 19 -73 19 -88 0 -16 16 -80 36 -143 20
-64 34 -117 32 -120 -9 -9 -260 128 -266 145 -2 6 -10 11 -17 11 -7 0 -32 16
-55 35 -23 19 -45 35 -49 35 -11 0 -204 191 -237 234 -171 227 -215 355 -214
631 1 223 47 393 162 591 25 44 53 86 62 93 9 8 16 18 16 23 0 8 62 72 130
133 15 13 62 35 115 53 38 13 53 14 58 5z m47 -748 c0 -18 11 -100 25 -182 14
-81 25 -165 25 -186 0 -21 9 -75 19 -120 23 -100 48 -218 56 -271 6 -38 6 -38
-20 -32 -61 15 -194 88 -239 131 -27 25 -54 49 -60 53 -43 27 -70 221 -43 313
9 30 18 66 21 80 3 14 19 43 36 64 16 21 30 42 30 48 0 14 133 144 143 139 4
-2 7 -18 7 -37z m-1437 -726 c-6 -6 -9 -1 -7 13 3 33 6 36 11 14 3 -10 1 -22
-4 -27z m1844 -589 c-5 -22 -27 35 -26 68 0 24 2 22 15 -13 8 -22 13 -46 11
-55z"/>
<path d="M391 7445 c-13 -41 -21 -80 -19 -87 2 -6 14 26 26 72 28 104 23 116
-7 15z"/>
<path d="M5423 7410 c0 -41 2 -58 4 -37 2 20 2 54 0 75 -2 20 -4 3 -4 -38z"/>
<path d="M8560 7434 c0 -10 10 -53 21 -94 11 -41 26 -95 32 -120 8 -33 12 -39
15 -23 3 19 -53 240 -64 252 -2 2 -4 -4 -4 -15z"/>
<path d="M360 7317 c0 -3 -13 -67 -30 -140 -16 -74 -30 -145 -29 -158 1 -28 4
-17 45 169 14 68 24 126 20 129 -3 4 -6 4 -6 0z"/>
<path d="M8951 7300 c0 -14 -12 -70 -26 -125 -26 -106 -30 -130 -16 -105 15
26 53 208 48 232 -4 22 -4 22 -6 -2z"/>
<path d="M8634 7120 c2 -25 13 -148 24 -275 12 -126 26 -293 31 -370 l9 -140
-1 182 c-1 100 1 185 6 189 4 4 19 -3 33 -17 l26 -24 -17 36 c-17 36 -17 37 6
70 13 19 26 36 29 39 21 21 39 49 45 70 4 14 -11 -2 -33 -35 -38 -57 -102
-124 -102 -108 0 5 -5 46 -10 93 -5 47 -14 131 -20 188 -11 104 -34 193 -26
102z"/>
<path d="M7100 7066 c0 -36 45 -199 48 -177 5 30 -29 191 -40 191 -5 0 -8 -6
-8 -14z"/>
<path d="M8878 7017 c-22 -45 -29 -67 -19 -67 9 0 46 89 39 95 -2 2 -11 -10
-20 -28z"/>
<path d="M276 6865 c-9 -55 -21 -119 -26 -142 -6 -23 -10 -57 -9 -75 1 -22 5
-9 14 37 36 187 47 254 43 267 -3 7 -12 -32 -22 -87z"/>
<path d="M8836 6923 c-6 -14 -5 -15 5 -6 7 7 10 15 7 18 -3 3 -9 -2 -12 -12z"/>
<path d="M8760 6654 c0 -14 65 -105 68 -95 2 6 -11 31 -29 56 -32 44 -39 51
-39 39z"/>
<path d="M216 6475 c-10 -66 -24 -151 -32 -190 -8 -38 -14 -92 -13 -120 1 -36
7 -10 24 95 35 208 47 308 42 322 -2 7 -12 -41 -21 -107z"/>
<path d="M8830 6532 c0 -4 12 -24 26 -43 14 -19 39 -60 57 -91 17 -32 35 -58
39 -58 14 0 8 14 -22 54 -17 22 -30 43 -30 47 0 10 -60 99 -66 99 -2 0 -4 -4
-4 -8z"/>
<path d="M8960 6319 c0 -9 9 -27 21 -40 11 -13 27 -39 36 -59 20 -43 75 -122
81 -116 2 3 -10 26 -27 51 -17 26 -38 63 -47 83 -8 20 -18 39 -22 42 -5 3 -16
16 -25 30 -12 17 -17 19 -17 9z"/>
<path d="M8701 6053 c0 -84 3 -153 7 -153 10 0 52 -77 52 -96 0 -8 8 -31 18
-52 26 -52 50 -154 57 -244 4 -43 10 -78 15 -78 4 0 22 17 40 38 17 20 40 47
51 58 10 12 19 26 19 31 0 17 52 85 60 76 4 -4 22 -55 40 -113 18 -58 34 -109
35 -115 2 -5 4 -1 4 10 1 11 -15 67 -34 125 -19 58 -35 115 -35 127 0 13 16
54 35 92 19 37 35 77 35 87 0 17 -18 -17 -91 -172 -11 -23 -26 -47 -34 -54 -8
-7 -15 -18 -15 -26 0 -7 -13 -28 -29 -46 -15 -18 -34 -44 -40 -57 -7 -13 -16
-19 -20 -15 -9 10 -26 82 -42 174 -6 36 -18 81 -26 100 -67 152 -76 186 -88
320 l-12 135 -2 -152z"/>
<path d="M152 6010 c-37 -269 -51 -402 -50 -470 l1 -75 8 85 c5 47 20 176 34
288 15 111 25 217 23 235 -2 19 -8 -6 -16 -63z"/>
<path d="M9100 6077 c0 -2 7 -19 17 -37 14 -29 14 -39 4 -74 -22 -73 -22 -104
-1 -46 12 30 24 63 27 72 3 10 -5 33 -17 53 -19 31 -30 42 -30 32z"/>
<path d="M8687 5740 c-31 -444 -66 -1251 -54 -1239 7 5 54 855 64 1139 6 178
0 241 -10 100z"/>
<path d="M9104 5350 c4 -31 43 -220 55 -275 9 -39 9 -39 5 10 -3 28 -12 84
-21 125 -16 78 -46 184 -39 140z"/>
<path d="M7550 5079 c0 -16 4 -28 9 -25 8 5 3 56 -5 56 -2 0 -4 -14 -4 -31z"/>
<path d="M2615 4991 c-16 -26 35 -232 76 -308 16 -29 29 -60 29 -68 0 -8 4
-15 9 -15 5 0 24 -24 42 -52 18 -29 41 -63 52 -75 16 -19 21 -45 28 -170 4
-81 13 -186 19 -233 5 -47 15 -127 21 -178 5 -51 14 -112 19 -135 l8 -42 1 50
c0 28 -8 129 -18 225 -23 205 -34 410 -24 410 14 -1 39 -24 52 -47 6 -13 18
-23 25 -23 8 0 28 -16 45 -35 17 -19 33 -35 36 -35 8 0 135 -88 161 -111 11
-11 24 -19 29 -19 8 0 84 -48 95 -61 3 -3 20 -11 38 -18 17 -8 32 -17 32 -21
0 -4 30 -21 68 -36 37 -16 73 -34 80 -41 15 -15 35 -17 30 -4 -3 9 -160 180
-220 241 -16 16 -28 33 -28 39 0 6 -11 18 -24 26 -14 9 -29 30 -35 46 -5 16
-14 29 -19 29 -5 0 -26 29 -47 65 -21 36 -42 68 -46 71 -4 2 -22 33 -39 67
-36 69 -50 89 -50 66 0 -8 14 -36 30 -62 17 -26 30 -53 30 -59 0 -6 16 -30 35
-54 19 -23 35 -47 35 -52 0 -6 15 -28 33 -51 17 -22 52 -66 77 -97 55 -70 90
-110 153 -176 27 -27 46 -52 44 -55 -3 -2 -30 12 -60 31 -31 20 -59 36 -63 36
-9 0 -175 109 -192 127 -7 7 -18 13 -23 13 -9 0 -62 42 -149 115 -54 46 -160
154 -160 163 0 5 -9 17 -20 27 -33 30 -100 133 -116 178 -8 22 -18 45 -22 51
-19 25 -41 106 -47 172 -7 75 -17 105 -30 85z"/>
<path d="M9173 4865 c0 -33 2 -45 4 -27 2 18 2 45 0 60 -2 15 -4 0 -4 -33z"/>
<path d="M8437 4753 c-2 -5 0 -53 4 -108 4 -55 13 -237 19 -404 7 -168 16
-316 20 -330 6 -20 8 -11 9 34 1 62 -13 447 -25 683 -6 116 -13 150 -27 125z"/>
<path d="M9047 4448 c8 -59 13 -61 13 -5 0 26 -4 47 -9 47 -5 0 -7 -19 -4 -42z"/>
<path d="M8611 4383 c-7 -49 -19 -128 -27 -178 -8 -49 -17 -112 -19 -140 -4
-43 -3 -46 5 -20 27 84 74 425 58 425 -3 0 -11 -39 -17 -87z"/>
<path d="M9155 4398 c-4 -29 -18 -105 -31 -168 -24 -115 -30 -171 -13 -115 25
83 68 335 56 335 -3 0 -8 -24 -12 -52z"/>
<path d="M9050 4338 c-20 -93 -24 -142 -12 -134 18 11 21 -8 12 -75 -6 -35
-14 -116 -20 -180 -5 -63 -16 -134 -25 -158 -18 -51 -18 -51 -5 -51 6 0 10 11
10 24 0 14 5 28 10 31 6 3 10 16 10 29 0 12 4 26 8 32 5 5 14 29 21 53 7 23
15 50 19 60 5 14 4 14 -13 1 -17 -14 -18 -12 -12 45 10 91 21 375 14 375 -3 0
-10 -24 -17 -52z"/>
<path d="M6020 4362 c0 -6 6 -17 13 -24 6 -7 20 -30 31 -50 19 -38 76 -99 76
-82 0 6 -11 21 -25 34 -14 13 -34 42 -45 66 -21 43 -50 76 -50 56z"/>
<path d="M6150 4190 c0 -5 7 -10 16 -10 8 0 12 5 9 10 -3 6 -10 10 -16 10 -5
0 -9 -4 -9 -10z"/>
<path d="M8997 4082 c-37 -126 -43 -158 -22 -112 34 72 69 210 54 210 -2 0
-17 -44 -32 -98z"/>
<path d="M8807 4020 c-12 -85 -28 -149 -38 -156 -5 -3 -9 -14 -9 -24 0 -11
-13 -42 -30 -70 -16 -28 -30 -55 -30 -59 0 -5 -16 -23 -35 -42 -19 -19 -35
-38 -35 -44 -1 -15 -103 -86 -111 -77 -4 4 -9 57 -10 117 -3 96 0 121 24 195
15 47 26 101 26 120 0 28 -5 19 -21 -40 -29 -110 -26 -104 -42 -91 -12 10 -14
6 -10 -26 2 -21 6 -90 8 -153 7 -154 22 -305 42 -418 25 -141 27 -103 4 58
-12 79 -18 156 -14 173 6 30 73 107 93 107 6 0 11 4 11 10 0 5 16 27 35 49 19
21 51 64 70 97 l35 58 -6 -49 c-4 -28 -18 -81 -31 -120 -41 -115 -41 -114 -7
-85 32 28 39 36 71 77 55 69 103 138 103 148 0 5 14 37 30 70 16 33 30 67 30
75 0 8 -14 -12 -30 -44 -17 -32 -30 -63 -30 -68 0 -5 -15 -33 -34 -61 -18 -29
-37 -59 -42 -68 -13 -24 -75 -92 -79 -87 -4 4 -2 14 34 148 28 103 43 215 39
280 l-3 55 -8 -55z"/>
<path d="M9091 4050 c-1 -8 -4 -26 -7 -40 -5 -22 -4 -23 6 -7 6 10 9 28 7 40
-2 12 -5 15 -6 7z"/>
<path d="M321 3724 c0 -11 3 -14 6 -6 3 7 2 16 -1 19 -3 4 -6 -2 -5 -13z"/>
<path d="M122 3660 c0 -14 2 -19 5 -12 2 6 2 18 0 25 -3 6 -5 1 -5 -13z"/>
<path d="M342 3635 c-7 -14 -12 -34 -12 -43 1 -9 7 1 15 23 16 45 14 58 -3 20z"/>
<path d="M135 3600 c-3 -6 1 -13 9 -16 9 -3 16 -13 16 -22 0 -8 2 -13 5 -10 8
8 -6 58 -15 58 -5 0 -12 -5 -15 -10z"/>
<path d="M8307 3562 c-8 -11 9 -128 31 -217 23 -95 28 -50 7 73 -9 53 -18 107
-19 120 -3 26 -12 37 -19 24z"/>
<path d="M5310 3443 c-74 -16 -211 -76 -232 -101 -20 -24 -2 -21 37 5 70 48
162 76 250 77 84 0 103 -6 218 -77 l45 -28 55 21 c30 11 61 27 67 35 8 9 30
15 56 15 41 0 46 -3 85 -55 23 -31 44 -53 47 -50 3 3 -4 18 -16 33 -12 15 -27
36 -33 47 -11 22 -53 45 -80 45 -10 0 -46 -13 -81 -30 -34 -16 -75 -30 -90
-30 -15 0 -60 19 -101 43 -90 54 -152 67 -227 50z"/>
<path d="M161 3434 c0 -11 3 -14 6 -6 3 7 2 16 -1 19 -3 4 -6 -2 -5 -13z"/>
<path d="M243 3331 c0 -11 5 -18 9 -15 4 3 5 11 1 19 -7 21 -12 19 -10 -4z"/>
<path d="M128 3313 c6 -2 18 -2 25 0 6 3 1 5 -13 5 -14 0 -19 -2 -12 -5z"/>
<path d="M82 3260 c0 -14 2 -19 5 -12 2 6 2 18 0 25 -3 6 -5 1 -5 -13z"/>
<path d="M286 3257 c3 -10 9 -15 12 -12 3 3 0 11 -7 18 -10 9 -11 8 -5 -6z"/>
<path d="M8363 3174 c0 -54 3 -86 6 -70 9 45 22 37 48 -29 28 -71 72 -165 78
-165 7 0 -11 53 -38 110 -14 30 -37 93 -53 140 -39 123 -41 123 -41 14z"/>
<path d="M8561 3102 c-1 -25 40 -175 46 -169 2 3 -4 31 -13 63 -9 32 -20 75
-24 94 -5 25 -8 28 -9 12z"/>
<path d="M8351 3058 c0 -4 -14 -59 -31 -121 -30 -113 -40 -179 -19 -129 20 52
60 217 56 236 -2 12 -5 18 -6 14z"/>
<path d="M83 2960 c0 -25 2 -35 4 -22 2 12 2 32 0 45 -2 12 -4 2 -4 -23z"/>
<path d="M8611 2904 c0 -11 3 -14 6 -6 3 7 2 16 -1 19 -3 4 -6 -2 -5 -13z"/>
<path d="M8500 2897 c0 -14 52 -98 58 -93 2 3 -9 27 -27 53 -17 26 -31 44 -31
40z"/>
<path d="M8262 2692 c-34 -99 -36 -108 -24 -97 15 15 54 130 50 149 -1 8 -13
-15 -26 -52z"/>
<path d="M110 2680 c0 -11 5 -20 10 -20 6 0 10 9 10 20 0 11 -4 20 -10 20 -5
0 -10 -9 -10 -20z"/>
<path d="M8660 2623 c0 -6 8 -17 18 -24 16 -13 16 -13 2 6 -8 11 -16 22 -17
24 -2 2 -3 0 -3 -6z"/>
<path d="M3100 2611 c0 -6 4 -13 10 -16 6 -3 7 1 4 9 -7 18 -14 21 -14 7z"/>
<path d="M8191 2506 c-19 -36 -31 -69 -28 -72 7 -7 69 116 64 129 -1 5 -18
-20 -36 -57z"/>
<path d="M7927 2368 c-20 -40 -37 -76 -37 -80 0 -16 -113 -168 -152 -205 -69
-65 -103 -103 -90 -103 13 0 156 140 171 168 5 9 12 14 16 11 3 -4 -8 -33 -24
-65 -17 -32 -41 -85 -55 -117 -14 -32 -32 -65 -41 -73 -8 -8 -15 -21 -15 -28
0 -8 -7 -19 -15 -26 -27 -22 -16 -32 11 -11 15 12 30 21 35 21 5 0 45 37 90
83 123 124 139 141 139 151 0 4 -51 -44 -114 -109 -62 -64 -116 -113 -120
-107 -3 5 3 20 14 32 11 13 20 29 20 36 0 7 14 36 30 64 17 28 30 55 30 59 0
5 16 40 35 77 19 38 35 76 35 85 0 8 15 46 34 85 30 61 52 124 43 124 -1 0
-19 -33 -40 -72z"/>
<path d="M8122 2364 c-18 -31 -31 -58 -29 -60 6 -6 68 97 65 107 -2 5 -18 -16
-36 -47z"/>
<path d="M7555 2293 c-12 -114 -26 -143 -112 -230 -23 -24 -45 -43 -48 -43
-11 0 -38 -31 -31 -37 3 -3 22 7 42 23 89 71 84 68 83 47 0 -10 -9 -31 -20
-48 -10 -16 -27 -46 -36 -65 -10 -19 -21 -37 -24 -40 -3 -3 -11 -15 -18 -27
-10 -20 -9 -23 8 -23 11 0 22 4 26 9 3 5 18 12 34 16 16 3 35 13 42 21 15 18
8 18 -27 -1 -29 -15 -54 -20 -54 -10 0 2 16 29 35 59 19 30 35 60 35 66 0 5
12 34 26 63 25 52 29 65 57 205 12 59 12 72 2 72 -9 0 -16 -20 -20 -57z"/>
<path d="M8052 2247 c-17 -25 -32 -48 -32 -52 0 -4 -14 -25 -31 -46 -17 -21
-26 -39 -20 -39 6 0 29 28 51 63 22 34 47 70 56 79 9 9 14 22 12 28 -2 6 -18
-9 -36 -33z"/>
<path d="M2939 2266 c8 -9 19 -16 26 -16 7 0 19 -7 26 -16 7 -9 22 -20 34 -25
27 -13 55 -30 101 -60 22 -15 76 -48 122 -75 45 -27 112 -68 150 -91 37 -24
87 -53 112 -66 69 -36 156 -84 198 -109 20 -13 55 -32 77 -43 22 -10 52 -27
67 -37 14 -10 31 -18 36 -18 6 0 38 -16 72 -35 34 -19 66 -35 71 -35 4 0 31
-13 59 -30 28 -16 58 -30 66 -30 8 0 46 -16 84 -35 76 -38 80 -40 80 -25 0 10
-91 60 -110 60 -9 0 -326 154 -380 185 -14 8 -74 41 -134 72 -59 32 -124 67
-145 79 -20 11 -63 35 -96 53 -33 19 -62 36 -65 40 -10 13 -60 41 -73 41 -7 0
-28 13 -47 30 -19 16 -42 29 -51 30 -9 0 -24 9 -33 19 -10 11 -28 22 -42 25
-13 4 -24 11 -24 16 0 6 -6 10 -14 10 -7 0 -33 15 -57 33 -55 40 -129 76 -110
53z"/>
<path d="M2740 2176 c-12 -25 -20 -51 -18 -57 2 -7 14 12 26 41 28 66 22 77
-8 16z"/>
<path d="M2702 2060 c-7 -25 -17 -69 -22 -99 -13 -71 -13 -251 0 -251 6 0 10
45 10 116 0 73 6 139 16 176 18 73 15 126 -4 58z"/>
<path d="M7592 1956 c-41 -29 -48 -36 -36 -36 5 0 25 13 44 30 42 35 38 38 -8
6z"/>
<path d="M5560 1903 c0 -5 13 -17 27 -27 l27 -20 -20 27 c-18 26 -34 35 -34
20z"/>
<path d="M5620 1840 c0 -5 6 -13 13 -17 16 -10 107 -129 107 -140 0 -4 8 -18
18 -31 l18 -23 46 38 c26 20 45 39 42 42 -2 2 -22 -10 -45 -28 -38 -32 -41
-32 -54 -15 -8 11 -15 23 -15 27 0 9 -119 157 -126 157 -2 0 -4 -4 -4 -10z"/>
<path d="M2470 1813 c0 -5 9 -20 20 -33 11 -12 22 -32 26 -44 4 -11 9 -23 13
-26 28 -23 81 -190 81 -257 0 -13 5 -23 10 -23 15 0 12 28 -10 116 -24 94 -50
164 -60 164 -4 0 -13 14 -21 31 -13 34 -59 89 -59 72z"/>
<path d="M5915 1744 l-40 -35 49 30 c28 17 55 31 60 31 6 0 26 -14 45 -30 46
-41 52 -38 11 5 -44 45 -73 45 -125 -1z"/>
<path d="M2111 1684 c0 -11 3 -14 6 -6 3 7 2 16 -1 19 -3 4 -6 -2 -5 -13z"/>
<path d="M6096 1678 c12 -13 30 -33 40 -46 33 -41 63 -72 69 -72 10 0 -99 128
-115 135 -9 3 -6 -3 6 -17z"/>
<path d="M2115 1558 c5 -110 36 -234 88 -348 12 -24 26 -67 33 -95 l12 -50 1
41 c1 25 -10 65 -25 100 -49 110 -96 276 -105 369 l-8 90 4 -107z"/>
<path d="M5274 1573 c-30 -49 -129 -133 -156 -133 -7 0 -33 -7 -58 -16 -60
-21 -177 -21 -271 0 -42 10 -90 16 -105 14 -21 -3 -3 -10 62 -26 243 -59 456
-1 537 147 23 41 15 53 -9 14z"/>
<path d="M6242 1501 c18 -22 34 -38 36 -36 6 5 -52 75 -61 75 -5 0 7 -18 25
-39z"/>
<path d="M35 1460 l-40 -7 43 -2 c23 0 42 4 42 9 0 6 -1 9 -2 9 -2 -1 -21 -5
-43 -9z"/>
<path d="M5740 1461 c0 -5 5 -13 10 -16 6 -3 10 -2 10 4 0 5 -4 13 -10 16 -5
3 -10 2 -10 -4z"/>
<path d="M6280 1443 c0 -3 13 -27 29 -54 17 -26 35 -67 41 -91 l12 -43 -78
-72 c-44 -40 -74 -73 -68 -73 6 0 23 9 37 20 14 11 27 20 30 20 5 0 36 -135
41 -180 3 -34 19 -50 31 -31 3 6 15 11 25 11 10 0 22 5 26 11 5 8 -3 10 -25 7
-35 -5 -32 -10 -66 136 l-15 69 27 31 c16 17 34 35 41 41 10 8 8 24 -12 79
-14 39 -24 72 -22 74 3 2 14 -2 26 -8 11 -6 26 -10 31 -8 6 2 -17 18 -50 35
-34 18 -61 30 -61 26z"/>
<path d="M8 1383 c7 -3 16 -2 19 1 4 3 -2 6 -13 5 -11 0 -14 -3 -6 -6z"/>
<path d="M6410 1377 c0 -10 102 -68 112 -65 7 3 -13 19 -44 36 -52 30 -68 37
-68 29z"/>
<path d="M27 1295 c-15 -14 -24 -25 -20 -25 4 0 21 11 37 25 16 14 25 25 20
25 -5 0 -22 -12 -37 -25z"/>
<path d="M6545 1300 c3 -5 11 -10 16 -10 6 0 7 5 4 10 -3 6 -11 10 -16 10 -6
0 -7 -4 -4 -10z"/>
<path d="M6605 1266 c17 -14 36 -26 44 -26 17 0 17 1 -34 29 l-40 23 30 -26z"/>
<path d="M2638 1238 l-3 -43 -158 1 c-106 0 -156 -3 -154 -10 2 -7 59 -12 153
-14 l149 -3 2 -217 c1 -119 6 -239 11 -267 7 -36 10 40 11 273 0 177 -1 322
-3 322 -3 0 -6 -19 -8 -42z"/>
<path d="M6689 1221 c39 -30 81 -53 81 -44 0 8 -85 63 -98 63 -4 0 4 -9 17
-19z"/>
<path d="M6805 1155 c30 -24 75 -47 75 -37 0 5 -17 17 -37 27 -52 27 -61 29
-38 10z"/>
<path d="M6890 1107 c0 -8 102 -69 107 -64 2 3 -8 12 -24 21 -16 8 -35 22 -42
30 -12 14 -41 23 -41 13z"/>
<path d="M6140 1034 l-54 -65 -13 26 c-8 14 -18 25 -23 25 -16 0 -11 -16 10
-35 11 -10 20 -26 20 -36 0 -10 6 -24 13 -31 7 -7 21 -24 30 -38 12 -17 17
-19 17 -9 0 9 -9 26 -20 39 -11 13 -20 27 -20 31 0 12 46 80 73 109 29 30 41
50 30 49 -4 0 -33 -29 -63 -65z"/>
<path d="M2253 1010 c0 -30 2 -43 4 -27 2 15 2 39 0 55 -2 15 -4 2 -4 -28z"/>
<path d="M7010 1035 c0 -6 92 -66 96 -63 4 5 -58 53 -78 61 -10 3 -18 5 -18 2z"/>
<path d="M6460 986 l-45 -11 86 -3 86 -3 28 -54 c26 -52 65 -106 65 -90 0 4
-15 33 -34 64 -18 31 -35 62 -38 70 -3 12 -72 42 -93 40 -5 -1 -30 -6 -55 -13z"/>
<path d="M7120 966 c0 -6 76 -56 85 -56 10 0 -67 59 -77 60 -5 0 -8 -2 -8 -4z"/>
<path d="M2207 943 c-47 -5 -64 -30 -77 -109 -12 -70 1 -195 29 -281 24 -73
26 -45 5 60 -12 56 -15 112 -12 185 5 115 11 126 66 116 28 -5 32 -3 32 15 0
11 -1 20 -2 19 -2 -1 -20 -3 -41 -5z"/>
<path d="M7258 870 c23 -16 44 -30 47 -30 10 0 -30 37 -52 49 -39 20 -37 12 5
-19z"/>
<path d="M1580 857 c-24 -12 -50 -33 -59 -47 -8 -14 -28 -41 -43 -60 -14 -19
-38 -68 -52 -108 -23 -68 -25 -82 -20 -215 3 -78 5 -146 6 -152 0 -5 -3 -19
-8 -29 -5 -13 -4 -17 4 -12 11 6 14 -2 27 -67 6 -29 -10 -19 -29 21 -10 20
-22 45 -27 55 -6 10 -7 23 -3 29 4 7 3 8 -4 4 -15 -9 -33 28 -26 51 5 14 4 15
-4 4 -8 -11 -12 -10 -20 5 -5 11 -11 24 -12 29 -1 6 -18 34 -37 63 -20 30 -33
59 -29 68 3 8 2 12 -4 9 -6 -3 -13 2 -17 12 -4 10 -15 27 -25 37 -10 11 -18
23 -18 28 0 13 -81 128 -90 128 -5 0 -12 -4 -15 -10 -3 -5 -2 -10 3 -10 5 0
17 -16 26 -35 9 -19 21 -37 26 -40 6 -3 21 -30 35 -58 14 -29 36 -65 50 -82
14 -16 25 -35 25 -40 0 -6 13 -26 28 -45 16 -19 34 -50 40 -69 7 -19 23 -48
36 -65 13 -17 27 -42 31 -55 4 -13 20 -46 36 -73 16 -27 29 -54 29 -59 0 -20
34 -69 48 -69 10 0 12 6 7 18 -26 63 -54 198 -55 262 0 36 -5 93 -10 128 -13
95 9 249 44 302 14 22 28 40 31 40 3 0 2 -37 -1 -82 -10 -132 8 -242 56 -340
40 -82 90 -155 90 -131 0 7 -16 35 -35 62 -19 26 -35 55 -35 62 0 8 -6 26 -14
40 -35 68 -49 136 -50 239 -1 131 8 187 35 216 25 27 73 37 116 25 36 -10 113
-77 113 -98 0 -7 9 -22 21 -34 29 -29 86 -147 100 -206 22 -92 51 -173 61
-173 6 0 7 9 3 23 -3 12 -9 33 -11 47 -5 24 -5 24 10 6 9 -11 16 -26 16 -33 0
-11 66 -151 92 -193 5 -8 22 -42 38 -75 32 -64 69 -118 70 -98 0 7 -13 35 -30
63 -16 28 -30 55 -30 59 0 12 -50 100 -61 106 -5 4 -9 15 -9 25 0 10 -16 46
-35 79 -19 32 -35 66 -35 75 0 8 -16 41 -35 73 -19 32 -35 65 -35 74 0 9 -13
35 -30 57 -16 23 -30 45 -30 50 0 13 -97 143 -118 158 -11 8 -40 23 -65 33
-44 19 -45 19 -87 -2z"/>
<path d="M6159 815 c12 -22 28 -51 36 -65 35 -64 84 -169 95 -205 7 -22 17
-45 22 -51 10 -14 74 -187 98 -269 10 -33 29 -98 43 -145 23 -76 25 -81 26
-45 0 22 -13 78 -30 125 -16 47 -36 108 -44 135 -8 28 -23 68 -34 90 -12 21
-21 45 -21 53 0 7 -16 47 -35 88 -19 41 -35 79 -35 84 0 17 -102 205 -122 225
-19 19 -19 18 1 -20z"/>
<path d="M7354 805 c22 -19 44 -35 49 -35 13 0 -65 69 -78 70 -5 0 8 -16 29
-35z"/>
<path d="M6680 803 c0 -17 64 -126 68 -115 1 5 -13 36 -33 68 -19 33 -35 54
-35 47z"/>
<path d="M7420 766 c0 -6 138 -111 171 -131 10 -5 33 -23 53 -39 20 -16 39
-27 41 -24 2 2 -50 44 -117 94 -129 95 -148 108 -148 100z"/>
<path d="M6750 657 c0 -8 9 -40 20 -72 25 -72 25 -86 0 -117 l-20 -26 28 -5
c29 -6 172 -142 172 -164 0 -7 15 -41 34 -75 19 -35 40 -93 47 -131 10 -53 16
-67 31 -67 13 0 18 8 18 31 0 45 73 179 117 214 34 26 46 30 105 30 93 0 101
-12 46 -70 -42 -43 -116 -190 -103 -203 9 -10 22 12 39 65 18 53 83 146 117
163 14 8 23 6 40 -11 20 -20 21 -28 15 -106 -4 -46 -10 -91 -13 -99 -3 -8 1
-14 11 -14 12 0 16 9 16 34 0 18 4 57 10 85 14 74 -3 111 -72 151 -46 27 -61
31 -114 28 -50 -3 -67 -9 -98 -35 -47 -38 -116 -138 -116 -167 0 -22 -16 -54
-23 -46 -2 3 -16 42 -31 88 -36 108 -104 215 -173 271 -53 42 -54 44 -48 82 5
30 0 56 -20 109 -26 69 -35 83 -35 57z"/>
<path d="M2655 575 c4 -68 47 -213 53 -178 2 12 -4 43 -14 70 -9 26 -23 75
-30 108 l-13 60 4 -60z"/>
<path d="M2450 556 c0 -7 19 -26 42 -42 132 -90 268 -220 313 -300 26 -46 55
-62 31 -17 -8 16 -22 35 -30 42 -9 8 -16 19 -16 26 0 7 -16 25 -35 39 -19 15
-35 33 -35 41 0 8 -10 20 -22 26 -13 6 -37 26 -54 43 -35 35 -38 37 -129 106
-36 27 -65 43 -65 36z"/>
<path d="M7705 550 c7 -12 65 -53 65 -46 0 8 -54 56 -63 56 -4 0 -6 -4 -2 -10z"/>
<path d="M2269 507 c-9 -7 -20 -31 -24 -55 -4 -23 -10 -44 -15 -47 -4 -2 -17
17 -29 43 l-22 47 5 -37 c2 -20 11 -52 19 -70 9 -18 19 -44 23 -58 10 -35 22
-44 89 -63 127 -36 132 -39 125 -72 -7 -34 -24 -68 -43 -87 -18 -17 -86 -74
-112 -93 -16 -11 -17 -14 -4 -15 24 0 137 98 159 140 9 16 14 56 13 116 -1 73
-6 100 -23 135 -33 64 -61 98 -94 114 -35 18 -46 18 -67 2z m92 -44 c42 -44
82 -133 77 -171 -4 -32 -11 -32 -116 -5 l-74 18 4 82 c6 121 42 146 109 76z"/>
<path d="M7780 493 c0 -5 16 -19 36 -33 19 -14 48 -36 63 -50 16 -14 50 -43
76 -65 27 -22 60 -52 74 -66 14 -14 57 -52 95 -85 39 -32 88 -76 110 -96 23
-21 45 -38 50 -38 11 0 -79 88 -136 133 -19 15 -54 45 -77 67 -24 22 -64 57
-89 77 -26 21 -61 52 -78 70 -18 18 -36 33 -42 33 -6 0 -23 14 -39 30 -27 29
-43 38 -43 23z"/>
<path d="M1337 420 c3 -11 7 -20 9 -20 2 0 4 9 4 20 0 11 -4 20 -9 20 -5 0 -7
-9 -4 -20z"/>
<path d="M1320 385 c7 -9 15 -13 17 -11 7 7 -7 26 -19 26 -6 0 -6 -6 2 -15z"/>
<path d="M6558 361 c-78 -7 -102 -21 -36 -21 73 0 168 12 168 21 0 10 -25 9
-132 0z"/>
<path d="M8314 25 c16 -14 32 -23 35 -19 7 6 -39 43 -54 44 -5 0 3 -11 19 -25z"/>
</g>
</svg>
